<?xml version="1.0" encoding="utf-8"?>
<!-- Generator: Adobe Illustrator 23.0.5, SVG Export Plug-In . SVG Version: 6.00 Build 0)  -->
<svg version="1.1" id="Layer_1" xmlns="http://www.w3.org/2000/svg" xmlns:xlink="http://www.w3.org/1999/xlink" x="0px" y="0px"
	 width="456px" height="264.2px" viewBox="0 0 456 264.2" style="enable-background:new 0 0 456 264.2;" xml:space="preserve">
<style type="text/css">
	.st0{fill:url(#SVGID_1_);}
	.st1{fill:#7B54E2;}
	.st2{fill:#B098EE;}
	.st3{fill:#5D3FAA;}
	.st4{fill:url(#SVGID_2_);}
	.st5{fill:#F8E74A;}
	.st6{fill:#1179C5;}
	.st7{fill:#4C505E;}
	.st8{fill:#303030;}
	.st9{fill:#001F26;}
	.st10{fill:#0089A9;}
	.st11{fill:#75E0F9;}
	.st12{fill:#004555;}
	.st13{fill:#31003D;}
	.st14{fill:#3C4875;}
	.st15{fill:#5DB9F4;}
	.st16{fill:#DD7C82;}
	.st17{fill:#903B41;}
	.st18{fill:#A65E62;}
	.st19{fill:#360442;}
	.st20{fill:#1E1E1E;}
	.st21{fill:#FD5E5A;}
	.st22{fill:#B54300;}
	.st23{fill:#D80000;}
	.st24{fill:#3A0049;}
	.st25{fill:#6D175B;}
	.st26{fill:#FC7575;}
	.st27{fill:#4F005E;}
	.st28{fill:#7F71A4;}
	.st29{fill:#F15900;}
	.st30{fill:#2E0A29;}
	.st31{fill:#450F3D;}
	.st32{fill:#340B2E;}
	.st33{fill:#464A7F;}
	.st34{fill:#3B4999;}
	.st35{fill:#363A68;}
	.st36{fill:#5C1451;}
	.st37{fill:#FFFFFF;}
	.st38{fill:#603E6B;}
	.st39{fill:#A338C6;}
	.st40{fill:#3A0051;}
	.st41{fill:#5492BA;}
	.st42{fill:#2A495D;}
	.st43{fill:#1A1722;}
	.st44{fill:#990044;}
	.st45{fill:#2B001B;}
	.st46{fill:#781051;}
	.st47{fill:#332F44;}
	.st48{fill:#8DCFF9;}
	.st49{fill:#000086;}
	.st50{fill:#000065;}
	.st51{fill:#42004A;}
	.st52{fill:#0000BF;}
	.st53{fill:#0000FF;}
	.st54{fill:#70C3F8;}
	.st55{fill:#C6E7FC;}
	.st56{fill:url(#SVGID_3_);}
	.st57{fill:#1C0F00;}
	.st58{fill:#00C9F7;}
	.st59{fill:#F47A33;}
</style>
<g>
	
		<linearGradient id="SVGID_1_" gradientUnits="userSpaceOnUse" x1="36.7122" y1="67.4272" x2="365.9236" y2="67.4272" gradientTransform="matrix(1 0 0 -1 0 246)">
		<stop  offset="0" style="stop-color:#F2CADD"/>
		<stop  offset="1" style="stop-color:#FFFFF1"/>
	</linearGradient>
	<path class="st0" d="M353.4,238.7c0,0,45.4-133.1-36.5-138.1c-81.9-5-280.2,139.6-280.2,150.8c0,11.2,305.3,1,305.3,1L353.4,238.7z
		"/>
	<g>
		<g>
			<path class="st1" d="M173.1,127.6c-1.1,1.1-3,1.8-5.2,1.7c-2.2-0.1-4.1-0.9-5.1-2.1c1.1-1.1,3-1.8,5.2-1.7
				C170.2,125.5,172.1,126.4,173.1,127.6z"/>
			<g>
				<path class="st1" d="M196.7,173.2c-1.5-10-2.1-20-2-30.1c0-5,0.3-10,0.7-15.1c0.4-5,1-10,1.7-15c1.4-9.9,3.4-19.8,5.9-29.5
					c1.3-4.9,2.6-9.7,4.2-14.5c1.5-4.8,3.1-9.5,5-14.2l0.6,0.2c-1.8,4.6-3.4,9.4-4.8,14.2c-1.5,4.8-2.8,9.6-4,14.5
					c-2.4,9.7-4.2,19.5-5.5,29.4c-0.6,5-1.2,9.9-1.5,14.9c-0.3,5-0.5,10-0.5,14.9c0,10,0.7,19.9,2.3,29.8L196.7,173.2z"/>
				<path class="st1" d="M215.1,34.9c-2.8,1.7-5.1,5.3-5.7,9.8c-0.6,4.4,0.5,8.5,2.8,11c2.8-1.7,5.1-5.3,5.7-9.8
					C218.6,41.5,217.4,37.4,215.1,34.9z"/>
				<path class="st1" d="M198.4,50.2c-0.3,2.6,0.8,5.7,3.1,8.3c2.4,2.6,5.5,3.9,8.1,3.7c0.3-2.6-0.8-5.7-3.1-8.3
					C204.1,51.4,201,50,198.4,50.2z"/>
				<path class="st1" d="M210.1,62.1c2.2,1.4,5.5,1.8,8.8,0.7s5.8-3.3,6.8-5.7c-2.2-1.4-5.5-1.8-8.8-0.7
					C213.5,57.4,211,59.6,210.1,62.1z"/>
				<path class="st1" d="M206.8,73.1c2.2,1.4,5.5,1.8,8.8,0.7c3.3-1.1,5.8-3.3,6.8-5.7c-2.2-1.4-5.5-1.8-8.8-0.7
					C210.3,68.4,207.8,70.6,206.8,73.1z"/>
				<path class="st1" d="M203.4,84.3c2.2,1.4,5.5,1.8,8.8,0.7c3.3-1.1,5.8-3.3,6.8-5.7c-2.2-1.4-5.5-1.8-8.8-0.7
					C206.9,79.7,204.4,81.9,203.4,84.3z"/>
				<path class="st1" d="M201.2,94.8c2.2,1.4,5.5,1.8,8.8,0.7c3.3-1.1,5.8-3.3,6.8-5.7c-2.2-1.4-5.5-1.8-8.8-0.7
					C204.6,90.2,202.1,92.4,201.2,94.8z"/>
				<path class="st1" d="M202.1,92.7c-2.2,1.4-5.5,1.8-8.8,0.7s-5.8-3.3-6.8-5.7c2.2-1.4,5.5-1.8,8.8-0.7S201.2,90.3,202.1,92.7z"/>
				<path class="st1" d="M195.4,60.2c-0.3,2.6,0.8,5.7,3.1,8.3c2.4,2.6,5.5,3.9,8.1,3.7c0.3-2.6-0.8-5.7-3.1-8.3
					C201,61.3,197.9,60,195.4,60.2z"/>
				<path class="st1" d="M191.9,71.6c-0.3,2.6,0.8,5.7,3.1,8.3c2.4,2.6,5.5,3.9,8.1,3.7c0.3-2.6-0.8-5.7-3.1-8.3
					C197.5,72.7,194.5,71.4,191.9,71.6z"/>
				<g>
					<path class="st1" d="M260.8,81.2c-4.4,2.4-8.4,5.2-12.4,8.2c-4,3-7.7,6.2-11.3,9.6c-3.6,3.4-7,7-10.3,10.8
						c-3.2,3.8-6.3,7.7-9.1,11.8c-5.7,8.2-10.4,17-14.2,26.2c-3.7,9.2-6.5,18.9-8.2,28.7l2.1,0.3c1.6-9.7,4.2-19.2,7.7-28.4
						c3.6-9.2,8.2-18,13.7-26.1c2.8-4.1,5.7-8.1,8.9-11.9c3.2-3.8,6.5-7.4,10.1-10.9c3.5-3.4,7.3-6.7,11.1-9.8
						c3.9-3,7.9-5.9,12.2-8.4L260.8,81.2z"/>
					<path class="st1" d="M276.9,70c-0.2,3.3-2.4,7-6.1,9.6c-3.7,2.6-7.9,3.4-11.1,2.5c0.2-3.3,2.4-7,6.1-9.6
						C269.5,69.9,273.7,69.1,276.9,70z"/>
					<path class="st1" d="M252.2,67.2c2.4,2.2,3.9,6.2,3.7,10.7c-0.3,4.5-2.2,8.3-4.9,10.2c-2.4-2.2-3.9-6.2-3.7-10.7
						C247.6,73,249.5,69.1,252.2,67.2z"/>
					<path class="st1" d="M237.6,74.5c3,1.5,5.5,5,6.4,9.3c0.9,4.4,0.1,8.6-2,11.2c-3-1.5-5.5-5-6.4-9.3
						C234.7,81.3,235.6,77.1,237.6,74.5z"/>
					<path class="st1" d="M227.8,83.6c3,1.5,5.5,5,6.4,9.3s0.1,8.6-2,11.2c-3-1.5-5.5-5-6.4-9.3C224.9,90.3,225.7,86.2,227.8,83.6z"
						/>
					<path class="st1" d="M216.5,92.9c3.2,0.7,6.6,3.4,8.6,7.4c2,4,2.3,8.3,0.9,11.3c-3.2-0.7-6.6-3.4-8.6-7.4
						C215.4,100.2,215.1,95.9,216.5,92.9z"/>
					<path class="st1" d="M208.5,104.5c3-0.1,6.4,1.5,9.1,4.5c2.7,3,3.8,6.6,3.3,9.6c-3,0.1-6.4-1.5-9.1-4.5
						C209.2,111,208,107.4,208.5,104.5z"/>
					<path class="st1" d="M202.7,111.8c3-0.1,6.4,1.5,9.1,4.5c2.7,3,3.8,6.6,3.3,9.6c-3,0.1-6.4-1.5-9.1-4.5
						C203.4,118.4,202.3,114.7,202.7,111.8z"/>
					<path class="st1" d="M199.4,122.6c2.5-0.1,5.5,1.2,7.8,3.8c2.3,2.6,3.3,5.7,2.9,8.2c-2.5,0.1-5.5-1.2-7.8-3.8
						C200,128.2,199,125.1,199.4,122.6z"/>
					<path class="st1" d="M196.2,133.8c1.8-1,4.6-1.2,7.3-0.1c2.7,1,4.6,3,5.3,5c-1.8,1-4.6,1.2-7.3,0.1
						C198.8,137.8,196.9,135.9,196.2,133.8z"/>
					<path class="st1" d="M194.9,143.1c1.1-1.3,3.2-2.1,5.5-2c2.3,0.1,4.3,1.1,5.3,2.4c-1.1,1.3-3.2,2.1-5.5,2
						C197.9,145.4,196,144.5,194.9,143.1z"/>
					<path class="st1" d="M270.8,94.6c-2.8,1.7-7.1,2.1-11.3,0.6s-7.4-4.4-8.5-7.5c2.8-1.7,7.1-2.1,11.3-0.6
						C266.5,88.6,269.6,91.5,270.8,94.6z"/>
					<path class="st1" d="M261.8,102c-2.8,1.7-7.1,2.1-11.3,0.6c-4.2-1.5-7.4-4.4-8.5-7.5c2.8-1.7,7.1-2.1,11.3-0.6
						C257.6,96,260.7,98.9,261.8,102z"/>
					<path class="st1" d="M252.3,111.1c-2.8,1.7-7.1,2.1-11.3,0.6c-4.2-1.5-7.4-4.4-8.5-7.5c2.8-1.7,7.1-2.1,11.3-0.6
						C248,105.1,251.2,108,252.3,111.1z"/>
					<path class="st1" d="M241.5,117.1c-2.3,1.4-5.8,1.7-9.2,0.5c-3.4-1.2-6-3.6-6.9-6.1c2.3-1.4,5.8-1.7,9.2-0.5
						C238.1,112.2,240.6,114.6,241.5,117.1z"/>
					<path class="st1" d="M233.5,122.9c-1.9,1.2-4.7,1.5-7.5,0.5c-2.8-1-4.8-2.9-5.5-5c1.9-1.2,4.7-1.5,7.5-0.5
						C230.7,118.8,232.8,120.8,233.5,122.9z"/>
					<path class="st1" d="M228.7,130.3c-1.9,1.2-4.7,1.5-7.5,0.5c-2.8-1-4.8-2.9-5.5-5c1.9-1.2,4.7-1.5,7.5-0.5
						C225.9,126.2,227.9,128.2,228.7,130.3z"/>
					<path class="st1" d="M223.4,137c-1.5,1.3-4.1,1.9-6.8,1.5s-4.9-1.8-6-3.5c1.5-1.3,4.1-1.9,6.8-1.5
						C220.1,133.9,222.4,135.3,223.4,137z"/>
					<path class="st1" d="M218.3,145.5c-1.7,0.5-4,0-6-1.3c-2-1.4-3.3-3.3-3.4-5.1c1.7-0.5,4,0,6,1.3
						C216.9,141.7,218.1,143.7,218.3,145.5z"/>
					<path class="st1" d="M212.6,150.5c-1.4,0.1-3-0.5-4.3-1.8c-1.3-1.3-2-3-1.8-4.3c1.4-0.1,3,0.5,4.3,1.8
						C212.1,147.5,212.7,149.2,212.6,150.5z"/>
					<path class="st1" d="M208.8,151.8c-0.9,0.1-1.9-0.2-2.7-1c-0.8-0.8-1.2-1.9-1-2.7c0.9-0.1,1.9,0.2,2.7,1
						C208.6,149.9,209,150.9,208.8,151.8z"/>
					<path class="st1" d="M207.6,154.3c-0.9,0.1-1.9-0.2-2.7-1c-0.8-0.8-1.2-1.9-1-2.7c0.9-0.1,1.9,0.2,2.7,1
						C207.4,152.4,207.8,153.4,207.6,154.3z"/>
				</g>
				<g>
					<path class="st2" d="M163.9,72.9c3.1,3.4,5.8,7.1,8.4,10.9c2.6,3.8,4.9,7.8,7.1,11.8c2.2,4.1,4.1,8.3,5.8,12.5
						c1.7,4.3,3.2,8.7,4.5,13.1c2.6,8.9,4.1,18,4.7,27.3c0.5,9.2,0.1,18.5-1.3,27.7l-2-0.3c1.5-9,2.1-18.1,1.7-27.3
						c-0.5-9.1-1.8-18.2-4.2-27c-1.2-4.4-2.6-8.8-4.2-13c-1.7-4.3-3.5-8.5-5.6-12.5c-2.1-4.1-4.4-8.1-6.9-11.9
						c-2.5-3.8-5.2-7.6-8.2-11L163.9,72.9z"/>
					<path class="st2" d="M153.2,58.2c-0.8,3,0.1,6.9,2.5,10.2c2.5,3.4,5.9,5.3,9,5.5c0.8-3-0.1-6.9-2.5-10.2
						C159.7,60.4,156.2,58.4,153.2,58.2z"/>
					<path class="st2" d="M175.7,63.1c-2.8,1.2-5.3,4.3-6.4,8.3c-1.1,4-0.5,7.9,1.3,10.4c2.8-1.2,5.3-4.3,6.4-8.3
						C178,69.5,177.5,65.6,175.7,63.1z"/>
					<path class="st2" d="M186.3,73.9c-3,0.4-6.3,2.7-8.4,6.3c-2.1,3.6-2.6,7.5-1.6,10.4c3-0.4,6.3-2.7,8.4-6.3
						C186.9,80.7,187.3,76.8,186.3,73.9z"/>
					<path class="st2" d="M192.2,84.8c-3,0.4-6.3,2.7-8.4,6.3c-2.1,3.6-2.6,7.5-1.6,10.4c3-0.4,6.3-2.7,8.4-6.3
						C192.8,91.6,193.3,87.6,192.2,84.8z"/>
					<path class="st2" d="M199.4,96.3c-3.1-0.3-6.8,1-9.8,3.9c-3,2.9-4.5,6.6-4.2,9.6c3.1,0.3,6.8-1,9.8-3.9
						C198.2,103,199.7,99.4,199.4,96.3z"/>
					<path class="st2" d="M202.9,108.9c-2.6-1-6.1-0.6-9.3,1.2c-3.2,1.8-5.3,4.7-5.8,7.4c2.6,1,6.1,0.6,9.3-1.2
						C200.4,114.4,202.5,111.6,202.9,108.9z"/>
					<path class="st2" d="M205.8,117c-2.6-1-6.1-0.6-9.3,1.2c-3.2,1.8-5.3,4.7-5.8,7.4c2.6,1,6.1,0.6,9.3-1.2
						C203.3,122.6,205.4,119.7,205.8,117z"/>
					<path class="st2" d="M205.5,127.5c-2.2-0.9-5.2-0.5-8,1c-2.8,1.6-4.6,4-5,6.3c2.2,0.9,5.2,0.5,8-1
						C203.3,132.3,205.1,129.8,205.5,127.5z"/>
					<path class="st2" d="M205,138.3c-1.3-1.5-3.7-2.4-6.4-2.3c-2.7,0.1-5,1.2-6.1,2.8c1.3,1.5,3.7,2.4,6.4,2.3
						C201.5,141,203.8,139.9,205,138.3z"/>
					<path class="st2" d="M203.3,146.9c-0.6-1.5-2.2-2.8-4.2-3.4c-2.1-0.6-4.1-0.3-5.4,0.6c0.6,1.5,2.2,2.8,4.2,3.4
						C200,148,202,147.8,203.3,146.9z"/>
					<path class="st2" d="M151.2,81.7c2,2.4,5.6,4,9.8,3.9s7.8-1.7,9.7-4c-2-2.4-5.6-4-9.8-3.9C156.7,77.7,153.1,79.3,151.2,81.7z"
						/>
					<path class="st2" d="M156.8,90.8c2,2.4,5.6,4,9.8,3.9c4.2,0,7.8-1.7,9.7-4c-2-2.4-5.6-4-9.7-3.9
						C162.4,86.8,158.8,88.4,156.8,90.8z"/>
					<path class="st2" d="M162.5,101.6c2,2.4,5.6,4,9.8,3.9c4.2,0,7.8-1.7,9.7-4c-2-2.4-5.6-4-9.8-3.9
						C168.1,97.6,164.4,99.2,162.5,101.6z"/>
					<path class="st2" d="M170.2,110.1c1.6,1.9,4.5,3.2,7.9,3.2s6.3-1.3,7.9-3.3c-1.6-1.9-4.5-3.2-7.9-3.2S171.7,108.2,170.2,110.1z
						"/>
					<path class="st2" d="M175.5,117.6c1.3,1.6,3.7,2.7,6.4,2.7c2.7,0,5.1-1.1,6.4-2.8c-1.3-1.6-3.7-2.7-6.4-2.7
						C179.2,114.9,176.8,116,175.5,117.6z"/>
					<path class="st2" d="M177.5,125.6c1.3,1.6,3.7,2.7,6.4,2.7c2.7,0,5.1-1.1,6.4-2.8c-1.3-1.6-3.7-2.7-6.4-2.7
						C181.2,122.8,178.8,123.9,177.5,125.6z"/>
					<path class="st2" d="M180.2,133c0.9,1.6,3,2.9,5.5,3.3s4.9-0.1,6.3-1.3c-0.9-1.6-3-2.9-5.5-3.3
						C184,131.3,181.6,131.8,180.2,133z"/>
					<path class="st2" d="M182.1,142c1.4,0.9,3.5,1.2,5.7,0.6c2.2-0.6,3.8-2,4.5-3.5c-1.4-0.9-3.5-1.2-5.7-0.6
						C184.5,139.1,182.8,140.5,182.1,142z"/>
					<path class="st2" d="M185.6,148.1c1.2,0.5,2.8,0.4,4.3-0.3c1.6-0.8,2.6-2,2.9-3.2c-1.2-0.5-2.8-0.4-4.3,0.3
						C187,145.6,185.9,146.9,185.6,148.1z"/>
					<path class="st2" d="M188.5,150.4c0.7,0.4,1.8,0.4,2.7-0.1c0.9-0.5,1.6-1.3,1.7-2.1c-0.7-0.4-1.8-0.4-2.7,0.1
						C189.3,148.7,188.7,149.6,188.5,150.4z"/>
					<path class="st2" d="M188.9,152.9c0.7,0.4,1.8,0.4,2.7-0.1c0.9-0.5,1.6-1.3,1.7-2.1c-0.7-0.4-1.8-0.4-2.7,0.1
						S189,152.1,188.9,152.9z"/>
				</g>
				<g>
					<path class="st3" d="M229.9,62.7c-3.2,3.8-5.9,8-8.5,12.2c-2.6,4.2-4.9,8.6-7,13.1c-2.1,4.5-4,9.1-5.6,13.8
						c-1.6,4.7-3,9.5-4.1,14.3c-2.3,9.7-3.4,19.6-3.6,29.6c-0.1,10,0.9,19.9,2.9,29.7l2.1-0.4c-2.1-9.6-3.2-19.4-3.3-29.3
						c0-9.8,1-19.7,3.1-29.3c1.1-4.8,2.3-9.6,3.9-14.3c1.6-4.7,3.4-9.3,5.4-13.8c2-4.5,4.3-8.9,6.8-13.2c2.5-4.3,5.2-8.4,8.3-12.3
						L229.9,62.7z"/>
					<path class="st3" d="M240.7,46.4c1,3.2,0.3,7.4-2.2,11.1c-2.5,3.7-6.1,6.1-9.4,6.4c-1-3.2-0.3-7.4,2.2-11.1
						S237.4,46.7,240.7,46.4z"/>
					<path class="st3" d="M216.7,52.9c3.1,1.2,6,4.4,7.4,8.6c1.4,4.3,1,8.5-0.8,11.3c-3.1-1.2-6-4.4-7.4-8.6
						C214.5,59.9,214.9,55.7,216.7,52.9z"/>
					<path class="st3" d="M205.8,65c3.3,0.3,6.9,2.6,9.4,6.3c2.5,3.7,3.2,7.9,2.2,11.1c-3.3-0.3-6.9-2.6-9.4-6.3
						C205.6,72.4,204.9,68.2,205.8,65z"/>
					<path class="st3" d="M200,77c3.3,0.3,6.9,2.6,9.4,6.3c2.5,3.7,3.2,7.9,2.2,11.1c-3.3-0.3-6.9-2.6-9.4-6.3
						C199.8,84.4,199,80.2,200,77z"/>
					<path class="st3" d="M192.9,89.8c3.3-0.5,7.3,0.8,10.7,3.7c3.4,3,5.1,6.9,5,10.2c-3.3,0.5-7.3-0.8-10.7-3.7
						C194.5,97,192.8,93.1,192.9,89.8z"/>
					<path class="st3" d="M189.8,103.6c2.7-1.2,6.5-1,10.1,0.8c3.6,1.8,6,4.8,6.6,7.7c-2.7,1.2-6.5,1-10.1-0.8
						C192.8,109.4,190.4,106.5,189.8,103.6z"/>
					<path class="st3" d="M187.1,112.5c2.7-1.2,6.5-1,10.1,0.8c3.6,1.8,6,4.8,6.6,7.7c-2.7,1.2-6.5,1-10.1-0.8
						C190.1,118.3,187.7,115.4,187.1,112.5z"/>
					<path class="st3" d="M188,123.7c2.3-1,5.6-0.9,8.7,0.7c3.1,1.6,5.1,4.1,5.7,6.6c-2.3,1-5.6,0.9-8.7-0.7
						C190.6,128.8,188.5,126.2,188,123.7z"/>
					<path class="st3" d="M189.1,135.4c1.3-1.6,3.8-2.8,6.7-2.8c2.9,0,5.4,1.1,6.8,2.7c-1.3,1.6-3.8,2.8-6.7,2.8
						C193,138.1,190.5,137,189.1,135.4z"/>
					<path class="st3" d="M191.3,144.5c0.6-1.6,2.2-3.1,4.4-3.8c2.2-0.8,4.4-0.6,5.8,0.3c-0.6,1.6-2.2,3.1-4.4,3.8
						S192.8,145.4,191.3,144.5z"/>
					<path class="st3" d="M244.1,71.6c-2,2.7-5.8,4.6-10.3,4.7c-4.5,0.2-8.5-1.4-10.7-3.8c2-2.7,5.8-4.6,10.3-4.7
						C237.9,67.5,241.9,69.1,244.1,71.6z"/>
					<path class="st3" d="M238.4,81.7c-2,2.7-5.8,4.6-10.3,4.7c-4.5,0.2-8.5-1.4-10.7-3.8c2-2.7,5.8-4.6,10.3-4.7
						C232.3,77.7,236.2,79.2,238.4,81.7z"/>
					<path class="st3" d="M232.9,93.6c-2,2.7-5.8,4.6-10.3,4.7c-4.5,0.2-8.5-1.4-10.7-3.8c2-2.7,5.8-4.6,10.3-4.7
						C226.7,89.6,230.7,91.2,232.9,93.6z"/>
					<path class="st3" d="M225.1,103.2c-1.6,2.2-4.7,3.7-8.4,3.9c-3.6,0.2-6.9-1.1-8.7-3.1c1.6-2.2,4.7-3.7,8.4-3.9
						S223.3,101.2,225.1,103.2z"/>
					<path class="st3" d="M219.7,111.5c-1.3,1.8-3.8,3.1-6.8,3.2c-2.9,0.1-5.6-0.9-7-2.6c1.3-1.8,3.8-3.1,6.8-3.2
						C215.7,108.8,218.3,109.8,219.7,111.5z"/>
					<path class="st3" d="M218,120.2c-1.3,1.8-3.8,3.1-6.8,3.2s-5.6-0.9-7-2.6c1.3-1.8,3.8-3.1,6.8-3.2
						C213.9,117.4,216.5,118.5,218,120.2z"/>
					<path class="st3" d="M215.5,128.4c-0.9,1.8-3.1,3.3-5.8,3.9c-2.7,0.6-5.3,0.1-6.9-1.1c0.9-1.8,3.1-3.3,5.8-3.9
						C211.4,126.7,213.9,127.2,215.5,128.4z"/>
					<path class="st3" d="M213.9,138.1c-1.4,1.1-3.7,1.5-6.1,1c-2.4-0.5-4.2-1.9-5.1-3.5c1.4-1.1,3.7-1.5,6.1-1
						C211.2,135.2,213.1,136.5,213.9,138.1z"/>
					<path class="st3" d="M210.5,144.9c-1.2,0.6-3,0.6-4.7-0.1c-1.7-0.7-2.9-2-3.3-3.3c1.2-0.6,3-0.6,4.7,0.1
						C208.9,142.3,210.1,143.6,210.5,144.9z"/>
					<path class="st3" d="M207.4,147.5c-0.8,0.5-1.9,0.5-2.9,0.1c-1-0.5-1.8-1.3-2-2.2c0.8-0.5,1.9-0.5,2.9-0.1
						C206.5,145.8,207.2,146.6,207.4,147.5z"/>
					<path class="st3" d="M207.2,150.3c-0.8,0.5-1.9,0.5-2.9,0.1c-1-0.5-1.8-1.3-2-2.2c0.8-0.5,1.9-0.5,2.9-0.1
						C206.3,148.5,207,149.4,207.2,150.3z"/>
				</g>
				<g>
					<path class="st1" d="M183.8,142.6c-4.7-6.9-9.6-13.6-14.9-20l0.1-0.1c5.4,6.3,10.5,12.9,15.3,19.7c4.8,6.8,9.4,13.8,13.5,21.1
						c1,1.8,1.9,3.5,2.9,5.3c-0.4,0.2-0.7,0.4-1.1,0.6c-0.9-1.8-1.8-3.6-2.8-5.4C192.8,156.6,188.5,149.5,183.8,142.6z"/>
					<path class="st1" d="M163.7,113.9c1.7,0.2,3.5,1.3,4.6,3.2c1.1,1.9,1.3,4,0.6,5.6c-1.7-0.2-3.5-1.3-4.6-3.2
						C163.2,117.6,163.1,115.5,163.7,113.9z"/>
					<path class="st1" d="M176.6,117.9c0.7,1.4,0.7,3.4-0.1,5.5c-0.8,2-2.2,3.5-3.6,4.1c-0.7-1.4-0.7-3.4,0-5.5
						C173.7,119.9,175.1,118.4,176.6,117.9z"/>
					<path class="st1" d="M177,133c-1.2,1-3.2,1.5-5.3,1.2c-2.2-0.3-4-1.3-4.8-2.6c1.2-1,3.2-1.5,5.3-1.2
						C174.4,130.7,176.2,131.7,177,133z"/>
					<path class="st1" d="M182.2,139.7c-1.2,1-3.2,1.5-5.3,1.2c-2.2-0.3-4-1.3-4.8-2.6c1.2-1,3.2-1.5,5.3-1.2
						C179.5,137.4,181.3,138.4,182.2,139.7z"/>
					<path class="st1" d="M185.7,145c-1.2,1-3.2,1.5-5.3,1.2c-2.2-0.3-4-1.3-4.8-2.6c1.2-1,3.2-1.5,5.3-1.2
						C183.1,142.7,184.9,143.7,185.7,145z"/>
					<path class="st1" d="M189.6,150.9c-1.2,1-3.2,1.5-5.3,1.2c-2.2-0.3-4-1.3-4.8-2.6c1.2-1,3.2-1.5,5.3-1.2
						C187,148.6,188.8,149.6,189.6,150.9z"/>
					<path class="st1" d="M181.1,123.6c0.7,1.4,0.7,3.4,0,5.5c-0.8,2-2.2,3.5-3.6,4.1c-0.7-1.4-0.7-3.4,0-5.5
						C178.2,125.7,179.6,124.2,181.1,123.6z"/>
					<path class="st1" d="M185.4,129.5c0.7,1.4,0.7,3.4-0.1,5.5c-0.8,2-2.2,3.5-3.6,4.1c-0.7-1.4-0.7-3.4,0-5.5
						C182.5,131.6,184,130.1,185.4,129.5z"/>
					<path class="st1" d="M189.5,135.5c0.7,1.4,0.7,3.4,0,5.5c-0.8,2-2.2,3.5-3.6,4.1c-0.7-1.4-0.7-3.4,0-5.5
						C186.6,137.5,188.1,136,189.5,135.5z"/>
					<path class="st1" d="M193.5,141.3c0.7,1.4,0.7,3.4,0,5.5c-0.8,2-2.2,3.5-3.6,4.1c-0.7-1.4-0.7-3.4,0-5.5
						C190.6,143.4,192,141.9,193.5,141.3z"/>
				</g>
			</g>
		</g>
		
			<linearGradient id="SVGID_2_" gradientUnits="userSpaceOnUse" x1="202.1446" y1="41.8883" x2="196.4627" y2="86.0806" gradientTransform="matrix(1 0 0 -1 0 246)">
			<stop  offset="0" style="stop-color:#F20000"/>
			<stop  offset="1" style="stop-color:#FFA630"/>
		</linearGradient>
		<path class="st4" d="M182.8,164.9h31.4c5.2,2.7,8.5,6.6,8.5,11.1c0,4.7-3.8,8.9-9.6,11.6h-29.2c-5.8-2.7-9.6-6.9-9.6-11.6
			C174.3,171.5,177.6,167.5,182.8,164.9z"/>
		<path class="st5" d="M185.8,167.4c-3.1-0.4-7.2,2-8.3,6.7c-1.5,9.3,7.8,12,12.9,9.6c-4.4-1.1-9.2-3.1-9.4-7.7
			c-0.2-2.4,1.2-4.7,1.2-4.8c0.2-0.3,0.6-1,1.3-1.8C184.1,168.6,184.9,168,185.8,167.4z"/>
		<rect x="181.4" y="163.5" class="st6" width="34.7" height="2.2"/>
	</g>
	<g>
		<rect x="41" y="206.3" class="st7" width="4.6" height="29.7"/>
	</g>
	<path class="st8" d="M55.2,190.7v3.6c0,2.4-2.2,4.3-4.9,4.3h-0.6v4c0,1-0.9,1.8-2.1,1.8h-8.2c-1.1,0-2.1-0.8-2.1-1.8v-4.2
		c-2-0.5-3.5-2.2-3.5-4.1v-3.6L55.2,190.7L55.2,190.7z"/>
	<rect x="40.2" y="204.4" class="st8" width="6" height="7"/>
	<g>
		<polygon class="st9" points="40.2,244.8 46.2,244.8 46.2,239.7 46.2,235.5 40.2,235.5 		"/>
		<polygon class="st9" points="68.5,251 46.2,239.7 46.2,244.8 62.2,251 62.2,252.2 68.5,252.2 		"/>
		<polygon class="st9" points="17.9,251 40.2,239.7 40.2,244.8 24.2,251 24.2,252.2 17.9,252.2 		"/>
		<polygon class="st9" points="45.2,239.7 45.2,252.2 46.7,252.2 46.7,253 40.2,253 40.2,252.2 41.6,252.2 41.1,239.7 		"/>
	</g>
	<path class="st10" d="M20,117.4v58.8h32.6l-2.9-59.4c-0.2-4.9-3.1-8.7-6.6-9.1c-0.1,0-0.3,0-0.5,0H27.1C23.2,107.6,20,112,20,117.4
		z"/>
	<path class="st11" d="M33.3,108.9c0.2,0,0.3,0,0.5,0c3.5,0.3,6.4,4.2,6.6,9.1l2.8,58.1h9.4l-2.9-59.4c-0.2-4.9-3.1-8.7-6.6-9.1
		c-0.1,0-0.3,0-0.5,0H27.1c-1.3,0-2.5,0.5-3.5,1.3H33.3z"/>
	<path class="st12" d="M24.4,107.6h5.3c-5.4,0-9.7,4.4-9.7,9.7v58.8h-5.3v-58.8C14.7,112,19,107.6,24.4,107.6z"/>
	<g>
		<path class="st13" d="M58.6,84.1C58.6,84.1,58.7,84.1,58.6,84.1C58.7,84.1,58.6,84.1,58.6,84.1z"/>
	</g>
	<g>
		<path class="st14" d="M36.3,87.6C36.3,87.6,36.3,87.6,36.3,87.6c-0.3,0-0.4-0.2-0.4-0.4c5-28.4,30.2-28.1,30.4-28.1
			c0.2,0,0.4,0.2,0.4,0.4c0,0.2-0.2,0.4-0.4,0.4c-0.2,0-24.8-0.3-29.6,27.4C36.7,87.5,36.5,87.6,36.3,87.6z"/>
	</g>
	<path class="st15" d="M383.9,254.1c0,2.8-85.2,5.1-190.2,5.1S3.5,256.9,3.5,254.1c0-2.8,85.2-5.1,190.2-5.1
		S383.9,251.3,383.9,254.1z"/>
	<g>
		<rect x="163.7" y="187.2" class="st16" width="53.7" height="68"/>
		<rect x="217.4" y="187.2" class="st17" width="10.4" height="68"/>
		<polygon class="st17" points="171.3,207.3 214.9,207.3 214.9,190.3 213.8,206.5 		"/>
		<polygon class="st17" points="170.4,228.8 214,228.8 214,211.8 212.9,228 		"/>
		<path class="st17" d="M195,194.7c0,0.8-1.6,1.5-3.6,1.5s-3.6-0.7-3.6-1.5c0-0.8,1.6-1.5,3.6-1.5S195,193.8,195,194.7z"/>
		<path class="st17" d="M196.1,219.6c0,0.9-1.8,1.6-4,1.6c-2.2,0-4-0.7-4-1.6s1.8-1.6,4-1.6C194.3,218,196.1,218.7,196.1,219.6z"/>
		<polygon class="st17" points="170.2,250.1 213.9,250.1 213.9,233.1 212.7,249.3 		"/>
		<path class="st17" d="M196,240.9c0,0.9-1.8,1.6-4,1.6c-2.2,0-4-0.7-4-1.6c0-0.9,1.8-1.6,4-1.6C194.2,239.3,196,240,196,240.9z"/>
		<rect x="163.7" y="187.2" class="st18" width="53.7" height="3.7"/>
		<rect x="217.5" y="187.2" class="st19" width="10.3" height="3.7"/>
	</g>
	<g>
		<path class="st20" d="M87.4,185.5l4.6-14.1c1-3.1,0.5-6.3-1.3-9c-1.8-2.6-4.7-4.3-7.9-4.4l-38.2-2l-0.3,5.2l38.2,2
			c1.6,0.1,3,0.9,3.9,2.2c0.9,1.3,1.1,2.9,0.6,4.4l-4.6,14.1L87.4,185.5z"/>
	</g>
	<path class="st12" d="M21.6,192.2h58.9l0,0c0-5.9-4.8-10.7-10.7-10.7H32.2C26.4,181.5,21.6,186.3,21.6,192.2L21.6,192.2z"/>
	<path class="st10" d="M33.8,192.2h58.9l0,0c0-5.9-4.8-10.7-10.7-10.7H44.5C38.6,181.5,33.8,186.3,33.8,192.2L33.8,192.2z"/>
	<path class="st21" d="M91.4,151.2l-5.4-2.4l0,0c-2.1-1-4.4-1.1-5.5-1.3l0,0l0,0c-1.3-0.2-2.8-0.4-4.8-0.7c0.1,1.8,0.3,3.5,0.8,5.3
		c0.5-0.1,0.9-0.1,1.4-0.2c2.3-0.3,7.5,0.1,9.1,2.5s1.6,4,2.1,3.8c0.5-0.2,0-2.7-0.7-3.9c-0.8-1.2-1.2-2.3-1.2-2.3s2.1,2.4,2.4,3.7
		c0.3,1.3,1,2.6,1.3,2.5c0.3-0.1-0.4-2.4-0.6-3.8c-0.2-0.9-0.5-1.7-0.8-2.4l1.6,0.7c0,0,2.2,3.4,2.4,2.6
		C93.6,154.6,91.4,151.2,91.4,151.2z"/>
	<path class="st22" d="M72.1,145.7c-10.6-1.5-13.2,0.3-13.2-4.5c0-6.4,7.1-21.8,3.9-26.1c-0.5-0.7-4.6-3.5-6.4-1.6
		c-6.2,6.4-9.1,30.1-4.3,37.8c3,4.7,15.3,2,24.5,0.8c-0.5-1.8,0.1-4.7,0-6.5C75.5,145.5,73.5,145.9,72.1,145.7z"/>
	<path class="st23" d="M77.2,147.5l6.1,2.4c0,0,2.4,3.4,2.2,4.2c-0.2,0.8-2.8-2.6-2.8-2.6l-3.7-1.6L77.2,147.5z"/>
	<path class="st23" d="M73.8,148.6c0,0,2.9,3.1,2.9,3.7c0,0.7,0.3,2.2,0.8,2.2s0.6-2.7,0.6-3.5c0-0.8-1.5-3.2-1.7-3.2
		C76.2,147.8,73.8,148.6,73.8,148.6z"/>
	<path class="st21" d="M84.5,234.2c-0.6,0.5-3.1-0.6-3.1,1.6c0,0.7,1.5,0.8,1.9,3.4c0.2,1.7-0.9,5.8-0.4,7.3c1,2.9,3.3,4.4,3.3,4.4
		c0-1.8-0.9-2.8-0.9-4.6s6-8.2,6.5-14.4c0-0.4,0.1-0.9,0.3-1.5c-1.8-1.1-3.5-2.1-5-3.4C85.7,231.1,84.6,234,84.5,234.2z"/>
	<path class="st24" d="M85.5,236.4c0-0.7-0.6-1.4-1.1-2.2c-0.6,0.4-3-0.6-3,1.6c0,2.2-4.7,8.3-4.7,8.3l0.9,0.8c0,0,4.7-7.7,5.1-5.8
		c0.4,1.9-2.7,7.7-2.7,7.7l5.9,5l0.3-1c0-1.8-0.8-2.7-0.9-4.6C82.5,244,85.9,239.2,85.5,236.4z"/>
	<path class="st25" d="M106.8,182c-3.2-8.7-45.4-17.8-45.4-17.8l-5,1.8l-4.5,6l42.1,13.6c0,0-4.3,28.9-9.3,43.6
		c1.7,1.4,4.5,0.9,6.5,2.2C94.4,220.7,108.5,186.8,106.8,182z"/>
	<g>
		<path class="st26" d="M95.9,227c-2.1,0.1-4.2,0.3-6.3,0.6c0.6,4.2,0.9,7.5,0.4,8.4c-0.4,0.7-0.8,1.4-1.3,2.1
			c-1.2,1.9-2.3,3.5-1.9,4.3c0.2,0.5,2.9,0,3.9,2.4c1.2,2.9,0.7,8.8,0.7,8.8l9,1.5c0,0,1.2-0.6-0.6-2.4c-1.8-1.8-3.4-2.4-4-4.4
			s-0.1-12.1-0.1-18.6C95.9,229,95.9,228.1,95.9,227z"/>
		<path class="st27" d="M101,254.4L101,254.4c-0.1-0.3-1.2-3-4.1-4.7l-2,1.3c-2.3-2.8-2.2-7.2-3.7-10.1c-0.3-1-1.4-2.1-2.6-2.9
			c-1.2,1.9-2.3,3.5-1.9,4.3c0.6,1.1,0.5,10.9,0.5,10.9h1.4c0,0-0.8-8.1,0.5-8.6c1.4-0.5,1.7,9.4,1.7,9.4l10,1.4
			C100.9,255.6,101.4,255.4,101,254.4z"/>
	</g>
	<path class="st28" d="M88.6,175.5l-32.4-7.3l-21.8,3.4c0,0-2.8,9.2,2,12.9c1.9,1.5,42.9,3.7,42.9,3.7s6.3,30.2,7.7,40.2
		c2.6-0.3,6.8-1,9.3-1.2C96.8,217.1,91.1,176.2,88.6,175.5z"/>
	<path class="st29" d="M62,105.6c1.8,0.3,6,7.5,7,10.1c0.2,0.5,3,9.8,0.3,12.9c-2.6,3.1-6.4,12.1-8.4,16.3c-1,2-6.9,10.4,0.6,15
		c1.9,1.1,5.1,0.7,4.1,2.4c-1,1.6-22.2,13.9-31,11.4c-8.8-2.5-1.7-5.4-0.9-7.6c0.8-2.2-3.7-2.7-1.8-5.3c1.9-2.5,8.9-8.7,12.9-22.3
		c0.4-1.3,1.4-26.7,2.9-30.7C48.7,105.1,58,104.9,62,105.6z"/>
	<g>
		<path class="st30" d="M73.2,77.2c-0.7,0.3-5.7-2.5-12,0.7c-6.1,3-8.2,13.6-8.7,18.9c-0.2,1.9,0.2,3.3,0.2,3.3s2.6,0.1,5,1.1
			c2.4,1,6.2,2.9,9,3.6c2.9,0.6,10.2-14.3,9.9-19.1C76.3,80.9,73.2,77.2,73.2,77.2z"/>
		<path class="st31" d="M73.2,77.2c0,0,5,2.5,5.1,6.9c0,4.4-5.9,15.9-2.6,17.7c0,0-1.9,0.4-3.2-0.2c0,0-1.4,1.2-0.2,4.2
			c0,0-2.9,0-5.5-1c-0.2-0.1-2.3-0.3-1.9-1.9c0.5-2,3.6-5.7,4.1-7.6C71.1,87.1,73.2,77.2,73.2,77.2z"/>
		<path class="st32" d="M73,77.9c0.6,0.2,1.1,0.5,1.5,0.8c0,0,4.3,4,3.1,7.8c-1.2,3.8-2.2,5.1-2.7,7.6c-0.8,4-5.8,10.2-9.9,8.5
			c0.7-2,3.6-5.5,4.1-7.4C70.8,88.4,72.5,80.4,73,77.9z"/>
		<path class="st26" d="M61.5,96.5l-4.5,8.7c0,0,3.6,12.4,10.2,11.1c0.1,0-2.2-2.2-2.6-5.7c-0.3-2.7,0.9-6.2,2.3-10.7
			C67.5,97.8,61.5,96.5,61.5,96.5z"/>
		<path class="st21" d="M61.5,96.5l-2.8,5.3c3.3,2.3,7.2,0.4,7.6-0.2c0.7-1.7,0.1-0.9,0.5-1.6C67.9,98,61.5,96.5,61.5,96.5z"/>
		<path class="st26" d="M74,78.5c0,0,4,3.8,2.9,7.5c-1.1,3.6-2.1,4.8-2.6,7.3c-0.5,2.5-3.8,8.2-8,8.4c-4.2,0.2-6.8-7.6-6.6-10.6
			s1.3-6.9,3.8-10.8C66,76.4,71.6,76.7,74,78.5z"/>
		<path class="st21" d="M60.7,96.3c-0.8-1.9-1.2-4-1.1-5.2c0.2-3,1.3-6.9,3.8-10.8c2.5-3.8,8.1-3.6,10.5-1.8c0,0,4,3.8,2.9,7.5
			c-0.4,1.2-0.7,2.2-1.1,3l0,0L71.4,87c0,0,1.7-3.7,1.2-5l-1.9,4.5l-3.1-1.1c0,0-0.4-2.4,0.4-4.2c0,0-1,2.4-0.9,4
			c0,0-2.1-0.9-2.6,0.3c-0.4,1-3,7.7-3.4,9.6C60.9,95.5,60.8,95.9,60.7,96.3z"/>
		<path class="st33" d="M78.1,82.5c-0.4-2.4-2.7-4.3-5-5.3c-3.1-2.9-10-4.2-16.4,1.8c-3.7,3.5-10.1,18.2-8.8,18.1c0.1,0,4.7,3,4.7,3
			l0.1-2.5c0.3,0.7,1.3,1.3,2.7,1.8c-0.5-3.2,0.9-5.4,0.9-5.4c-0.6,2.6-0.1,4.5,0.6,5.9c2.9,0.9,6.2,1.5,6.2,1.5
			c0-0.1-2.6-4.9-1.7-8.4c0.5-1.8,2.1-6.5,2.6-7.5c0.5-1.3,2.8-0.7,2.8-0.7c-0.1-1.6,1.6-4.4,1.6-4.4c-0.7,1.7-0.8,4.8-0.8,4.8
			l3,1.3l2.2-5.2c0.5,1.3-1,5.8-1,5.8l4.3,1.7C76.2,88.6,78.8,86.2,78.1,82.5z"/>
		<path class="st34" d="M73,77.5c-5.3-2.3-9.6-2.6-13.4,1.8c-3.7,4.2-9.3,13.8-9.5,19.4l2.5,1.4c-0.2-4.6,3.8-14.8,6.4-18.6
			C62.4,76.8,65.3,74.6,73,77.5z"/>
		<g>
			<path class="st35" d="M73.9,78.1c1.6,1.2,3.3,2.9,3.5,5c0.2,1.9-0.9,3.6-1.9,5.2L75,88.1C77.3,84.8,78.8,82.1,73.9,78.1z"/>
			<path class="st35" d="M73.6,78.2c3.2,3.1,1.9,6-0.4,9.2l-0.4-0.2C75.3,84.1,76.7,81.3,73.6,78.2z"/>
			<path class="st35" d="M73,77.7c-2.3,2.5-3,5-3.3,8.2l-0.4-0.2C69.8,82.6,70.6,80,73,77.7z"/>
		</g>
		<path class="st31" d="M69.7,94.7c-0.3-1,0.1-2.5,0.6-3.4c-0.1,1-0.5,2.7-0.2,3.5l0.1,0.2c-0.1,0-0.9,0.4-1.7,0.1
			C68.7,95,69.3,94.9,69.7,94.7z"/>
		<path class="st36" d="M70.1,87.9c0,0-0.2-0.6-1-1.1c-0.8-0.5-2.9-0.2-2.9-0.2s1.9,0.2,2.4,0.4c0.5,0.2,1.1,1,1.1,1L70.1,87.9z"/>
		<path class="st36" d="M72.3,88.9c0,0,0.5-0.3,1.3-0.2c0.8,0.1,2.1,1.3,2.1,1.3s-1.4-0.9-1.9-1c-0.4-0.1-1.2,0.1-1.2,0.1L72.3,88.9
			z"/>
		<path class="st33" d="M68.3,90c-0.1,0.3-0.4,0.5-0.6,0.4s-0.3-0.4-0.2-0.7s0.4-0.5,0.6-0.4C68.3,89.3,68.4,89.7,68.3,90z"/>
		<path class="st33" d="M73.5,92c-0.1,0.3-0.4,0.5-0.6,0.4c-0.2-0.1-0.3-0.4-0.2-0.7c0.1-0.3,0.4-0.5,0.6-0.4
			C73.5,91.3,73.6,91.6,73.5,92z"/>
		<path class="st30" d="M65.8,98.2c0.3,0.3,0.6,0.6,1.1,0.7C66.4,99,65.9,98.6,65.8,98.2z"/>
		<g>
			<path class="st37" d="M65.7,94.8c1.5,1.5,4.1,2.7,4.1,2.7S69.5,97.7,69,98c-0.8-0.4-2.2-1.1-3.3-2.1
				C65.7,95.3,65.7,94.8,65.7,94.8z"/>
			<path class="st30" d="M65.7,95.9c1.1,1,2.5,1.8,3.3,2.1C67.1,99,65.9,98,65.7,95.9z"/>
		</g>
		<path class="st30" d="M69.3,90.2c-0.2-0.6-1.1-1.1-1.6-1.2c-0.8-0.1-1.5,0.3-2,0.2c0.7,0.4,1.2-0.3,2.8,0.4
			C68.8,89.8,69.1,89.9,69.3,90.2z"/>
		<path class="st30" d="M71.5,91.3c0.5-0.3,1.5-0.3,2,0c0.7,0.4,1,1.2,1.5,1.4c-0.8,0-0.8-0.9-2.5-1.3
			C72.2,91.3,71.9,91.3,71.5,91.3z"/>
		<path class="st21" d="M66.6,92.5c-0.2,0.6-1.2,0.8-2.1,0.4c-1-0.4-1.5-1.1-1.3-1.7s1.2-0.8,2.1-0.4C66.2,91.2,66.8,91.9,66.6,92.5
			z"/>
		<path class="st21" d="M73.6,95.2c-0.2,0.4-0.8,0.6-1.4,0.4c-0.6-0.2-1-0.8-0.8-1.2c0.2-0.4,0.8-0.6,1.4-0.4
			C73.4,94.2,73.8,94.8,73.6,95.2z"/>
	</g>
	<path class="st26" d="M81.9,153.1c-1.5-6.6-8.6-6.6-11.1-7l0,0l0,0c-1-0.1-2.2-0.3-3.5-0.5c-0.6,1.6-1.3,3.3-1.4,5.1
		c0.7-0.1,1.3-0.2,2-0.2c2.7-0.3,8.6,0.1,10.4,2.5c1.8,2.4,1.8,4,2.4,3.8c0.6-0.2,0-2.7-0.9-3.9c-0.9-1.2-1.4-2.3-1.4-2.3
		s2.4,2.4,2.7,3.7c0.4,1.3,1.1,2.6,1.5,2.5C83,156.8,82.2,154.5,81.9,153.1z"/>
	<g>
		<rect x="352.3" y="211.7" class="st7" width="4.6" height="34"/>
	</g>
	<path class="st8" d="M342.7,196.2v3.6c0,2.4,2.2,4.3,5,4.3h0.6v4c0,1,0.9,1.8,2.1,1.8h8.2c1.2,0,2.1-0.8,2.1-1.8v-4.2
		c2-0.5,3.5-2.2,3.5-4.1v-3.6L342.7,196.2L342.7,196.2z"/>
	<rect x="351.7" y="209.8" class="st8" width="6" height="7"/>
	<g>
		<polygon class="st9" points="357.7,246.3 351.7,246.3 351.7,241.1 351.7,237 357.7,237 		"/>
		<polygon class="st9" points="329.4,252.5 351.7,241.1 351.7,246.3 335.7,252.5 335.7,253.6 329.4,253.6 		"/>
		<polygon class="st9" points="380.1,252.5 357.7,241.1 357.7,246.3 373.7,252.5 373.7,253.6 380.1,253.6 		"/>
		<polygon class="st9" points="352.7,241.1 352.7,253.6 351.2,253.6 351.2,254.5 357.7,254.5 357.7,253.6 356.4,253.6 356.8,241.1 
					"/>
	</g>
	<g>
		<path class="st20" d="M310.5,191l-4.6-14.1c-1-3.1-0.5-6.3,1.3-9c1.8-2.6,4.7-4.3,7.9-4.4l38.2-2l0.3,5.2l-38.2,2
			c-1.6,0.1-3,0.9-3.9,2.2c-0.9,1.3-1.1,2.9-0.6,4.4l4.6,14.1L310.5,191z"/>
	</g>
	<path class="st10" d="M377.9,122.8v58.8h-33.1l2.9-59.4c0.2-4.9,3.1-8.7,6.7-9.1c0.2,0,0.3,0,0.5,0h15.8
		C374.7,113.1,377.9,117.4,377.9,122.8z"/>
	<path class="st12" d="M376.3,197.6h-58.9l0,0c0-5.9,4.8-10.7,10.7-10.7h37.6C371.6,187,376.3,191.8,376.3,197.6L376.3,197.6z"/>
	<path class="st12" d="M373.5,113.1h-5.3c5.4,0,9.7,4.4,9.7,9.7v58.8h5.3v-58.8C383.2,117.4,378.9,113.1,373.5,113.1z"/>
	<path class="st10" d="M364.1,197.6h-58.9l0,0c0-5.9,4.8-10.7,10.7-10.7h37.6C359.3,187,364.1,191.8,364.1,197.6L364.1,197.6z"/>
	<g>
		<path class="st13" d="M339.3,89.5C339.3,89.5,339.3,89.5,339.3,89.5C339.3,89.6,339.3,89.5,339.3,89.5z"/>
	</g>
	<polygon class="st12" points="130.6,254.5 130.6,176.5 241.7,176.5 241.7,254.5 245.3,254.5 245.3,172.6 126.5,172.6 126.5,254.5 	
		"/>
	<g>
		<path class="st38" d="M146.1,161h-15.8l0,0c0-1.4,1.1-2.5,2.5-2.5h13.3L146.1,161L146.1,161z"/>
		<g>
			<polygon class="st39" points="116.5,107.2 115.4,107.2 99.9,150 146.6,149.3 			"/>
			<polygon class="st38" points="116.5,107.2 101.7,149.3 147.1,149.3 160.3,113.1 			"/>
			<path class="st39" d="M130.6,135.8l0.4-2.4l4.6,6.3l4.1,16v3.6l-1.3,0.4c0,0-0.6-4.6-1.6-7.1
				C135.8,150.1,130.6,135.8,130.6,135.8z"/>
			<path class="st40" d="M131,133.5c0,0,10,23.9,7.5,26.3h6.5l-8.9-26.3H131z"/>
		</g>
		<rect x="86.8" y="158" class="st38" width="41.8" height="3"/>
	</g>
	<g>
		<path class="st38" d="M215.6,160.4h15.8l0,0c0-1.4-1.1-2.5-2.5-2.5h-13.3V160.4z"/>
		<g>
			<polygon class="st39" points="245.2,106.5 246.3,106.5 261.8,149.4 215.1,148.7 			"/>
			<polygon class="st38" points="245.2,106.5 260,148.7 214.6,148.7 201.3,112.5 			"/>
			<path class="st39" d="M231.1,135.3l-0.4-2.4l-4.6,6.4l-4.1,16.3v3.7l1.3,0.4c0,0,0.6-4.7,1.6-7.3
				C225.9,149.8,231.1,135.3,231.1,135.3z"/>
			<path class="st40" d="M230.6,132.9c0,0-10,24.3-7.5,26.8h-6.5l8.9-26.8H230.6z"/>
		</g>
		<rect x="233.1" y="157.4" class="st38" width="41.8" height="3"/>
	</g>
	<rect x="128.6" y="167.8" class="st12" width="9.4" height="6.2"/>
	<rect x="160.3" y="167.8" class="st12" width="18.5" height="6.2"/>
	<rect x="193.8" y="167.8" class="st12" width="18.5" height="6.2"/>
	<rect x="229.8" y="167.8" class="st12" width="13" height="6.2"/>
	<g>
		<path class="st21" d="M324.5,171c0.4-2.6,5.6-8.4,8.1-9.4c2.5-0.9,13.7-8.8,17.2-13.4c0.6-0.8,1.2-2.3,2-4.3
			c1.7,1.7,3.5,3.3,5.1,5c-1.7,4.1-3.5,7.1-5.3,8c-7.5,3.8-15.8,7.7-16.6,8.1c-0.9,0.3-3.8,3.9-4.4,5.2c-0.6,1.3-1,5.5-0.9,6.4
			c0.1,1.1-0.7,1.8-1.1-0.3c-0.4-2.2,0-5,0-5s-1.6,2.3-2,3.2c-0.4,0.9,0.9,4.6,0.3,5.2c-0.6,0.6-1.1-1.3-1.5-2.4s0.3-5.7,0.3-5.7
			s-0.7,4.3-1.1,4.1C324.3,175.5,324.1,173.6,324.5,171z"/>
		<path class="st41" d="M363.2,112.2c2.9,0.5-1,23.9-6.3,36.8c-1.6-1.7-3.4-3.4-5.1-5C355.3,133.8,360,111.7,363.2,112.2z"/>
		<path class="st42" d="M352.2,139.7c0,0-1.7,1.5-1.7,2.5c0,1-2.5,2.4-1.5,2.9c1,0.4,7.5,6.6,7.5,6.6s4-0.6,3.8-2.7
			c-0.1-2.1,1.2-0.5,0.3-2.9C359.8,143.6,354.3,138.5,352.2,139.7z"/>
		<path class="st41" d="M360.5,148.1c-1.9-3.3-4.6-5.3-7.5-6c-0.4-0.1-0.5,0.4-0.1,0.5C353,142.7,357.3,143.2,360.5,148.1z"/>
		<path class="st41" d="M349.8,144.4c7.6,1,9.1,5.7,9,5.7c0.1,0.3,0.6,0.1,0.5-0.2C359.3,149.8,357.7,145,349.8,144.4z"/>
		<path class="st21" d="M322.5,171.7c0.1,1.5-13.5,21.8-13.2,28.4c0.3,6.6-3.6,22-6.8,26.9c-3.3,4.9-8.7,9.7-9.4,15.3
			c-0.1,0.7,1.4,4.5,0.6,5.3c-2,2.2-4.3,1-6.2,3c-1.8,2-4.1,1.9-6.4,2.4c-0.8,0.2-2.6-0.2-1.1-1.3c3.4-2.7,6.4-7.8,7-10.4
			c0.9-4.1,20.2-70.8,20.2-70.8L322.5,171.7z"/>
		<path class="st43" d="M280.4,251.5c0,0,3.8,0,7.6-3.2c3.8-3.2,5.3-5.1,5.3-5.1s2,1.9,1.1,4.7c-0.2,0.6-2.8,7.2-2.8,7.2l-1.5-0.1
			c0,0,1.8-5.7,1.4-5.7c-0.4,0-2.8,0.6-3.5,2c-0.7,1.3-1,2.6-2.8,3.1c-1.8,0.6-7.8-0.3-7.8-0.3C277.2,253.3,279.4,251.6,280.4,251.5
			z"/>
		<path class="st26" d="M316.4,183.6c-0.3,0.3-8,8.1-7.9,12c0.2,3.9-0.1,14.5-10.5,30.1c-9.1,13.6-10.7,16.6-10.8,19.4
			c0,0.2-6.9,6.7-12.6,8.6c-3.7,1.2-7.6-2-6.6-2.1c2.7-0.1,8.9-8,12.3-11.8c3.4-3.7,3.4-3.4,6.4-12.7c3-9.3,10.9-35,12.4-41.6
			c1.5-6.6,7.7-14.7,8.9-13.6C309.2,173,316.4,183.6,316.4,183.6z"/>
		<path class="st44" d="M348.8,157.9c0,0-10.9,8.6-20.3,11.3c-9.5,2.6-40.8,1.7-40.8,1.7s0.6,11.5,7.1,19.1
			c6.5,7.6,15.2,19.3,14.5,23.1c0,0,14.4-18.1,19-19.8c4.6-1.7,29.8-1.5,35.6-11.5c2.6-4.4,0.6-17.1,0.6-17.1L348.8,157.9z"/>
		<path class="st45" d="M328.2,193.3c4.1-1.1,17.1-0.8,27.5-4.8c9.2-3.7,10.3-7.9,9.7-16.8c-0.2-2.3-0.5-4.6-0.9-6.9
			c0.4,4.2,0.7,9.6,0,13.8c-0.5,2.5-1.1,3.7-3.3,5.6C353.2,190.9,333.2,191.4,328.2,193.3z"/>
		<path class="st46" d="M348.8,157.9c-18.7,13.1-22.7,12.4-61.2,13c9.7,0.6,30.9,1.2,40.2-1C335,168,343.1,162.6,348.8,157.9z"/>
		<path class="st47" d="M276.2,255.4c-2,0.6-11.3,0.5-11.4-2.4c0,0,1.6-1.7,4.3-1.9c0.2,0,1.1,0.9,3.3,0.8c4.4-0.2,10.7-6.5,15-7.7
			c0.3,0.3,0.4,0.7,0.4,1.1c0.2,3.4-4.9,11.1-4.9,11.1l-1.3-0.1c0,0,1.9-5.4,1.4-6.7C282.4,248.3,278.3,254.8,276.2,255.4z"/>
		<path class="st48" d="M373.1,107.2c0,0-6.3,0.5-9.2,3.2c-2.8,2.7-9.6,11.8-10.3,15.9c-0.7,4.1,2.7,8.8,1.7,14.3
			c-0.5,3.1-6.6,14.1-8.3,17.7c-1.7,3.6,15.5,7.2,17.3,6.5c1.8-0.7,17.9-40.2,13.9-48.5C374.4,108,373.1,107.2,373.1,107.2z"/>
		<g>
			<path class="st49" d="M374.9,89.3c0,0,5.1-0.9,5.5,1.8c0.4,2.7-1.3,6.8-3.3,8.1c-1.5,1-6.9,4.3-8.4,1.1
				C367.2,97.2,368.9,88.8,374.9,89.3z"/>
			<path class="st50" d="M377.7,90.3c1,2.7,1,5.5-1.7,7.4l0.6,0.8C379.3,96.2,379.2,93.2,377.7,90.3z"/>
			<path class="st26" d="M365.3,94.5c0,0-0.3,4.5-0.3,8.2c0,2-0.1,4-0.6,5.5c-0.5,1.6-4.7,7.1-5.1,8.4c-0.3,1,8-4.5,9.2-5
				c1.9-0.8,3.7-2.4,5.4-3.3l-2.6-18.7L365.3,94.5z"/>
			<path class="st21" d="M371.3,89.6l-6,4.9c0,0-0.2,2.6-0.2,5.5c1.9-0.8,5.5-3.7,6.6-7.9C371,88.3,371.3,89.6,371.3,89.6z"/>
			<path class="st26" d="M363,73.1c0,0-2.4,0.8-3.8,3.2c-1.4,2.4-0.6,5.9-1.4,8.1c-0.8,2.2,0.8,13.1,5.7,13.3
				c6.1,0.3,8.6-8.6,9.2-10.4c0.7-1.8,0.4-8.7-2.2-11.2C367.9,73.6,363,73.1,363,73.1z"/>
			<g>
				<path class="st27" d="M361.7,85.4c-0.2,1.4-0.5,3.2-0.9,4.6c0.5,0.3,1.1,0.4,1.7,0.4c-1,0.3-1.9-0.2-2-0.2
					C360.8,88.9,361.1,87.3,361.7,85.4z"/>
				<path class="st27" d="M365.1,83c0,0,1.3-0.5,2.6-0.3c1.3,0.2,2.7,2.1,2.7,2.1s-1.6-1.6-2.5-1.7c-0.9-0.1-1.9,0.2-1.9,0.2
					L365.1,83z"/>
				<path class="st27" d="M362,82.3c0,0-0.7-1.1-1.8-1.5c-1-0.4-2.8,0.6-2.8,0.6s1.9-0.6,2.5-0.3s1.3,1.1,1.3,1.1L362,82.3z"/>
				<path class="st37" d="M364.8,92.1c-2.4,1.2-3.4,1.3-4.3,1.3C362,94.1,364,93.2,364.8,92.1z"/>
				<path class="st27" d="M365.4,85.2c0.1,0.4,0.4,0.8,0.9,0.7c0.4-0.1,0.7-0.5,0.6-0.9c-0.1-0.4-0.4-0.8-0.9-0.7
					C365.6,84.4,365.3,84.8,365.4,85.2z"/>
				<path class="st51" d="M368.8,85.7c-2.7-2.8-3.8-0.8-4.8-0.7c0.8,0.1,1.6-0.7,2.5-0.5C367.1,84.7,368.1,85.3,368.8,85.7z"/>
				<path class="st27" d="M359.2,84.7c0.1,0.4,0.4,0.8,0.7,0.7c0.3-0.1,0.5-0.5,0.4-0.9c-0.1-0.4-0.4-0.8-0.7-0.7
					C359.4,83.8,359.2,84.2,359.2,84.7z"/>
				<path class="st51" d="M361.6,85c-2.2-2.6-3.2-0.5-4-0.3c0.6,0,1.4-0.8,2.1-0.7C360.2,84.1,361,84.6,361.6,85z"/>
				<path class="st21" d="M365.5,89.2c0.2,0.7,1.2,1.1,2.3,0.8c1-0.3,1.7-1.2,1.4-1.9c-0.2-0.7-1.2-1.1-2.3-0.8
					C366,87.7,365.3,88.5,365.5,89.2z"/>
			</g>
			<path class="st52" d="M368.5,76.2c-3.2-3.4-5.7-3-6-3c0,0,0.1-0.1,0.2-0.3c0.6-0.8,2.5-2.9,6.5-2.1c4.1,0.7,6.4,1.3,8.7,4.5
				c1,1.5,1.2,4,0.9,5.7c-0.5,3-1.9,3.4-1.7,6.5c0.2,3-6.5,4.9-6.5,4.9c0.1-0.4,0.8-3.3,1.1-4c0.7-1.7,0.7-3.2,0.1-4.6
				c-0.3,0.1-1.2-0.3-1.6-0.7C368.8,81.7,370.2,80.3,368.5,76.2z"/>
			<path class="st49" d="M364.8,71.5c0,0-2.9-1-5.9,0.3c-2.9,1.3-4.6,8.5-3.5,10.2c1.1,1.7-5.5,2.5-2.2,3.4
				C357.9,86.7,367.6,72.8,364.8,71.5z"/>
			<path class="st53" d="M363.7,72.4c-4.5-1-8,2-7.5,5.8c0.1,0.7,0.3,1.3,0.9,1.7l0.4-0.8c-0.2-0.1-0.4-0.7-0.5-1
				C356.4,74.7,359.4,71.7,363.7,72.4z"/>
		</g>
		<path class="st54" d="M373.2,107.7c0.4-1.3,14.5-12.6,19.2-17.6c1.8,2.5,3.9,4.6,6.4,6c-5.7,9.2-19.1,25.3-20.4,25.3
			C374.4,121.4,372,111.5,373.2,107.7z"/>
		<path class="st41" d="M378.3,121.4c-4.2-0.3-6.4-11.9-4.7-13.6c0.2-0.1-0.2,0.2,1.7-1.5c3.9-3.6,12.5-10.7,17.1-16.2
			c-5.4,5-19.1,15.7-19.7,17.6c-0.9,3.3,0.5,10,3.3,12.6C376.6,121,377.5,121.5,378.3,121.4z"/>
		<path class="st26" d="M393.7,88.6c5.7-9.1,7-23.2,4.9-27.2c-1.9-3.6-1.5-6.7-2.9-9.4c-0.7-1.3-0.6-1.7-0.6-1.8
			c0-0.1,0.4-0.1,1.1,0.1c1.2,0.4,1.3,4.4,2.3,4.8c0.2,0.1,0.6,0,0.7-0.4c0.5-1.5-0.8-11.8,0-11.9c0.7-0.1,0.6,1.8,0.6,1.8
			c0.4,6.4,0.6,8.5,1.5,8.1c0.1-0.1,0.2-0.2,0.3-0.4c0.4-1.1-0.3-9.8,0.8-10.6c0.3-0.2,0.5,2.1,0.5,2.2c0.1,1-0.7,7.9,0.2,8.5
			c1.6,1.1,1.2-8.8,2.6-8.3c0.8,0.3-0.2,3.2-0.4,4.6c-0.4,3-0.4,3.7,0,4c0.8,0.6,1.6-1.3,2.3-2.5c0.5-0.9,1.4-2.7,1.9-3
			c0.5,1.1-1.5,4.5-2,5.5c-1,2-0.9,1.4-2.5,8.1c-0.6,2.5-0.6,1.7-0.3,3.4c1.6,8.7-0.7,19.3-3.7,27.6c-0.4,1.1-1.2,2.6-2.3,4.4
			c-2.4-1.5-4.5-3.5-6.4-6C393,89.5,393.4,89,393.7,88.6z"/>
		<path class="st55" d="M392.2,87.7c0,0-1.7,1.5-1.7,2.5c0,1-2.5,2.4-1.5,2.9c1,0.4,7.5,6.6,7.5,6.6s4-0.6,3.8-2.7
			c-0.1-2.1,1.2-0.5,0.3-2.9C399.8,91.6,394.3,86.4,392.2,87.7z"/>
		<path class="st41" d="M400.5,96.1c-1.9-3.3-4.6-5.3-7.5-6c-0.4-0.1-0.5,0.4-0.1,0.5C393,90.7,397.3,91.2,400.5,96.1z"/>
		<path class="st41" d="M389.7,92.3c7.6,1,9.1,5.7,9,5.7c0.1,0.3,0.6,0.1,0.5-0.2C399.2,97.8,397.6,93,389.7,92.3z"/>
		<path class="st26" d="M371.3,84.3c0,0,1.4-2.1,2-0.8c0.6,1.3,0,5.4-1.5,5C370.2,88.1,371.3,84.3,371.3,84.3z"/>
		<path class="st21" d="M372,84.2c-0.4,0.6-0.9,2.5-0.3,2.9C372.9,87.7,373.1,82.3,372,84.2z"/>
	</g>
	<path class="st20" d="M389.2,163.7l-34.3,1.8c-3.2,0.2-6.3,1.7-8.2,4.3c-1.9,2.7-2.4,6-1.4,9.1l7,18.8l27,0.1l12.8-30.7
		C392.4,165.2,391,163.6,389.2,163.7z M376.5,193.4h-19.7l-6.5-16.1c-0.5-1.5-0.3-3.1,0.6-4.4c0.9-1.3,2.3-2.1,3.9-2.2l32.2-1.7
		L376.5,193.4z"/>
	<g>
		<g>
			<path class="st1" d="M368.7,213.3c-0.9,0.9-2.4,1.5-4.2,1.4c-1.8-0.1-3.3-0.8-4.1-1.7c0.9-0.9,2.4-1.5,4.2-1.4
				C366.4,211.6,367.9,212.3,368.7,213.3z"/>
			<g>
				<path class="st1" d="M388.2,250.7c-1.2-8.1-1.7-16.3-1.6-24.5c0-4.1,0.3-8.2,0.6-12.3c0.3-4.1,0.8-8.1,1.4-12.2
					c1.2-8.1,2.8-16.1,4.8-24c1-4,2.1-7.9,3.4-11.8c1.2-3.9,2.6-7.8,4.1-11.6l0.5,0.2c-1.5,3.8-2.7,7.7-3.9,11.6
					c-1.2,3.9-2.3,7.8-3.2,11.8c-1.9,7.9-3.5,15.9-4.5,24c-0.5,4-1,8.1-1.2,12.1c-0.3,4-0.4,8.1-0.4,12.2c0,8.1,0.6,16.2,1.9,24.2
					L388.2,250.7z"/>
				<path class="st1" d="M403.3,138.2c-2.3,1.4-4.2,4.3-4.7,8c-0.5,3.6,0.4,7,2.3,8.9c2.3-1.4,4.2-4.3,4.7-8
					C406,143.5,405.1,140.2,403.3,138.2z"/>
				<path class="st1" d="M389.6,150.6c-0.3,2.1,0.6,4.7,2.6,6.7c1.9,2.1,4.5,3.1,6.6,3c0.3-2.1-0.6-4.7-2.6-6.7
					C394.2,151.5,391.7,150.5,389.6,150.6z"/>
				<path class="st1" d="M399,160.8c1.8,1.1,4.5,1.4,7.2,0.6c2.7-0.9,4.7-2.7,5.5-4.7c-1.8-1.1-4.5-1.4-7.2-0.6
					C401.8,157,399.8,158.8,399,160.8z"/>
				<path class="st1" d="M396.5,169.2c1.8,1.1,4.5,1.4,7.2,0.6c2.7-0.9,4.7-2.7,5.5-4.7c-1.8-1.1-4.5-1.4-7.2-0.6
					C399.3,165.4,397.3,167.3,396.5,169.2z"/>
				<path class="st1" d="M393.7,178.4c1.8,1.1,4.5,1.4,7.2,0.6s4.7-2.7,5.5-4.7c-1.8-1.1-4.5-1.4-7.2-0.6
					C396.5,174.6,394.5,176.4,393.7,178.4z"/>
				<path class="st1" d="M391.9,187c1.8,1.1,4.5,1.4,7.2,0.6s4.7-2.7,5.5-4.7c-1.8-1.1-4.5-1.4-7.2-0.6
					C394.7,183.2,392.6,185,391.9,187z"/>
				<path class="st1" d="M392.6,185.2c-1.8,1.1-4.5,1.4-7.2,0.6s-4.7-2.7-5.5-4.7c1.8-1.1,4.5-1.4,7.2-0.6
					C389.9,181.4,391.9,183.3,392.6,185.2z"/>
				<path class="st1" d="M387.1,158.8c-0.3,2.1,0.6,4.7,2.6,6.7s4.5,3.1,6.6,3c0.3-2.1-0.6-4.7-2.6-6.7
					C391.8,159.7,389.2,158.6,387.1,158.8z"/>
				<path class="st1" d="M384.3,168c-0.3,2.1,0.6,4.7,2.6,6.7c1.9,2.1,4.5,3.1,6.6,3c0.3-2.1-0.6-4.7-2.6-6.7
					C388.9,168.9,386.4,167.9,384.3,168z"/>
				<g>
					<path class="st1" d="M440.4,175.9c-3.5,2-6.9,4.3-10.1,6.7c-3.2,2.4-6.3,5.1-9.2,7.8c-2.9,2.8-5.7,5.7-8.4,8.8
						c-2.6,3.1-5.1,6.3-7.4,9.6c-4.6,6.7-8.5,13.8-11.6,21.3c-3,7.5-5.3,15.4-6.7,23.4l1.7,0.3c1.3-7.9,3.4-15.7,6.3-23.2
						c2.9-7.5,6.6-14.6,11.1-21.3c2.2-3.3,4.6-6.6,7.2-9.7c2.6-3.1,5.3-6,8.2-8.8c2.9-2.8,5.9-5.5,9.1-8c3.2-2.5,6.5-4.8,9.9-6.8
						L440.4,175.9z"/>
					<path class="st1" d="M453.5,166.7c-0.2,2.7-2,5.7-5,7.8c-3,2.1-6.4,2.8-9,2c0.2-2.7,2-5.7,5-7.8
						C447.5,166.7,450.9,166,453.5,166.7z"/>
					<path class="st1" d="M433.4,164.5c2,1.8,3.2,5.1,3,8.7c-0.2,3.6-1.8,6.7-4,8.3c-2-1.8-3.2-5.1-3-8.7
						C429.6,169.1,431.2,166,433.4,164.5z"/>
					<path class="st1" d="M421.6,170.4c2.4,1.2,4.5,4,5.2,7.6s0.1,7-1.6,9.1c-2.4-1.2-4.5-4-5.2-7.6
						C419.2,175.9,419.9,172.5,421.6,170.4z"/>
					<path class="st1" d="M413.6,177.8c2.4,1.2,4.5,4,5.2,7.6c0.8,3.6,0.1,7-1.6,9.1c-2.4-1.2-4.5-4-5.2-7.6
						C411.2,183.3,411.9,179.9,413.6,177.8z"/>
					<path class="st1" d="M404.3,185.3c2.6,0.6,5.3,2.8,7,6c1.7,3.3,1.8,6.7,0.8,9.2c-2.6-0.6-5.3-2.8-7-6
						C403.4,191.3,403.2,187.8,404.3,185.3z"/>
					<path class="st1" d="M397.9,194.8c2.4-0.1,5.2,1.2,7.4,3.6c2.2,2.4,3.1,5.4,2.7,7.8c-2.4,0.1-5.2-1.2-7.4-3.6
						C398.4,200.1,397.5,197.2,397.9,194.8z"/>
					<path class="st1" d="M393.1,200.8c2.4-0.1,5.2,1.2,7.4,3.6c2.2,2.4,3.1,5.4,2.7,7.8c-2.4,0.1-5.2-1.2-7.4-3.6
						C393.7,206.1,392.8,203.1,393.1,200.8z"/>
					<path class="st1" d="M390.5,209.6c2.1-0.1,4.5,1,6.3,3.1c1.9,2.1,2.7,4.6,2.3,6.7c-2.1,0.1-4.5-1-6.3-3.1
						C390.9,214.1,390.1,211.6,390.5,209.6z"/>
					<path class="st1" d="M387.9,218.7c1.5-0.8,3.7-0.9,5.9-0.1c2.2,0.8,3.8,2.4,4.3,4.1c-1.5,0.8-3.7,1-5.9,0.1
						C390,221.9,388.4,220.3,387.9,218.7z"/>
					<path class="st1" d="M386.8,226.3c0.9-1,2.6-1.7,4.5-1.6c1.9,0.1,3.5,0.9,4.3,2c-0.9,1-2.6,1.7-4.5,1.6
						C389.2,228.2,387.6,227.4,386.8,226.3z"/>
					<path class="st1" d="M448.6,186.8c-2.3,1.4-5.8,1.7-9.2,0.5c-3.4-1.2-6-3.6-6.9-6.1c2.3-1.4,5.8-1.7,9.2-0.5
						S447.6,184.3,448.6,186.8z"/>
					<path class="st1" d="M441.3,192.8c-2.3,1.4-5.8,1.7-9.2,0.5c-3.5-1.2-6-3.6-6.9-6.1c2.3-1.4,5.8-1.7,9.2-0.5
						C437.8,187.9,440.3,190.3,441.3,192.8z"/>
					<path class="st1" d="M433.5,200.2c-2.3,1.4-5.8,1.7-9.2,0.5c-3.4-1.2-6-3.6-6.9-6.1c2.3-1.4,5.8-1.7,9.2-0.5
						C430,195.3,432.6,197.6,433.5,200.2z"/>
					<path class="st1" d="M424.7,205.1c-1.9,1.2-4.7,1.4-7.5,0.4c-2.8-1-4.9-2.9-5.6-5c1.9-1.2,4.7-1.4,7.5-0.4
						C421.9,201.1,424,203,424.7,205.1z"/>
					<path class="st1" d="M418.2,209.8c-1.5,1-3.8,1.2-6.1,0.4c-2.3-0.8-3.9-2.4-4.5-4.1c1.5-1,3.8-1.2,6.1-0.4
						C415.9,206.5,417.6,208.1,418.2,209.8z"/>
					<path class="st1" d="M414.3,215.8c-1.5,1-3.8,1.2-6.1,0.4c-2.3-0.8-3.9-2.4-4.5-4.1c1.5-1,3.8-1.2,6.1-0.4
						C412,212.5,413.7,214.1,414.3,215.8z"/>
					<path class="st1" d="M410,221.3c-1.2,1.1-3.3,1.6-5.5,1.2c-2.2-0.4-4-1.5-4.9-2.9c1.2-1.1,3.3-1.6,5.5-1.2
						C407.3,218.8,409.1,219.9,410,221.3z"/>
					<path class="st1" d="M405.8,228.2c-1.4,0.4-3.2,0-4.9-1.1c-1.6-1.1-2.6-2.7-2.8-4.2c1.4-0.4,3.2,0,4.9,1.1
						C404.7,225.1,405.7,226.7,405.8,228.2z"/>
					<path class="st1" d="M401.2,232.3c-1.1,0.1-2.4-0.4-3.5-1.5c-1.1-1.1-1.6-2.4-1.5-3.5c1.1-0.1,2.4,0.4,3.5,1.5
						C400.8,229.8,401.3,231.2,401.2,232.3z"/>
					<path class="st1" d="M398.1,233.4c-0.7,0.1-1.6-0.2-2.2-0.8s-0.9-1.5-0.8-2.2c0.7-0.1,1.6,0.2,2.2,0.8
						C397.9,231.8,398.2,232.6,398.1,233.4z"/>
					<path class="st1" d="M397.1,235.4c-0.7,0.1-1.6-0.2-2.2-0.8c-0.7-0.7-0.9-1.5-0.8-2.2c0.7-0.1,1.6,0.2,2.2,0.8
						C396.9,233.8,397.2,234.7,397.1,235.4z"/>
				</g>
				<g>
					<path class="st2" d="M361.6,169.1c2.5,2.8,4.8,5.8,6.9,8.9c2.1,3.1,4,6.3,5.8,9.6c1.8,3.3,3.3,6.7,4.8,10.2
						c1.4,3.5,2.6,7,3.6,10.7c2.1,7.2,3.3,14.7,3.8,22.2c0.4,7.5,0.1,15.1-1.1,22.5l-1.6-0.3c1.2-7.3,1.7-14.8,1.4-22.2
						c-0.4-7.4-1.5-14.8-3.4-22c-1-3.6-2.1-7.1-3.5-10.6c-1.3-3.5-2.9-6.9-4.6-10.2c-1.7-3.3-3.6-6.6-5.6-9.7c-2-3.1-4.2-6.2-6.7-9
						L361.6,169.1z"/>
					<path class="st2" d="M352.8,157.1c-0.6,2.4,0,5.6,2,8.3c2,2.7,4.8,4.3,7.3,4.5c0.6-2.4,0-5.6-2-8.3
						C358.1,158.9,355.3,157.3,352.8,157.1z"/>
					<path class="st2" d="M371.1,161.1c-2.3,1-4.3,3.5-5.2,6.8c-0.9,3.3-0.4,6.5,1,8.5c2.3-1,4.3-3.5,5.2-6.8
						C373,166.4,372.6,163.2,371.1,161.1z"/>
					<path class="st2" d="M379.8,169.9c-2.5,0.4-5.1,2.2-6.9,5.1c-1.7,2.9-2.1,6.1-1.3,8.5c2.5-0.4,5.1-2.2,6.9-5.1
						C380.2,175.4,380.6,172.2,379.8,169.9z"/>
					<path class="st2" d="M384.6,178.7c-2.5,0.4-5.1,2.2-6.9,5.1c-1.7,2.9-2.1,6.1-1.3,8.5c2.5-0.4,5.1-2.2,6.9-5.1
						C385.1,184.3,385.5,181.1,384.6,178.7z"/>
					<path class="st2" d="M390.4,188.1c-2.5-0.3-5.5,0.8-7.9,3.2c-2.4,2.4-3.6,5.4-3.4,7.9c2.5,0.3,5.5-0.8,7.9-3.2
						C389.5,193.6,390.7,190.6,390.4,188.1z"/>
					<path class="st2" d="M393.3,198.4c-2.1-0.8-5-0.5-7.6,1c-2.6,1.5-4.3,3.8-4.7,6c2.1,0.8,5,0.5,7.6-1
						C391.2,202.9,392.9,200.6,393.3,198.4z"/>
					<path class="st2" d="M395.7,205c-2.1-0.8-5-0.5-7.6,1c-2.6,1.5-4.3,3.8-4.7,6c2.1,0.8,5,0.5,7.6-1
						C393.6,209.5,395.3,207.2,395.7,205z"/>
					<path class="st2" d="M395.4,213.5c-1.8-0.7-4.2-0.4-6.5,0.8c-2.2,1.3-3.7,3.3-4,5.2c1.8,0.7,4.2,0.4,6.5-0.8
						C393.6,217.4,395.1,215.4,395.4,213.5z"/>
					<path class="st2" d="M395,222.4c-1.1-1.2-3-1.9-5.2-1.9c-2.2,0.1-4,1-5,2.3c1.1,1.2,3,1.9,5.2,1.9
						C392.1,224.5,394,223.6,395,222.4z"/>
					<path class="st2" d="M393.6,229.3c-0.5-1.2-1.8-2.2-3.5-2.7c-1.7-0.5-3.3-0.3-4.4,0.4c0.5,1.2,1.8,2.2,3.5,2.7
						C390.9,230.2,392.6,230,393.6,229.3z"/>
					<path class="st2" d="M351.2,176.2c1.6,1.9,4.6,3.2,7.9,3.2c3.4,0,6.3-1.3,7.9-3.3c-1.6-1.9-4.6-3.2-7.9-3.2
						C355.7,173,352.7,174.3,351.2,176.2z"/>
					<path class="st2" d="M355.8,183.7c1.6,1.9,4.6,3.2,7.9,3.2c3.4,0,6.3-1.3,7.9-3.3c-1.6-1.9-4.6-3.2-7.9-3.2
						C360.3,180.4,357.3,181.7,355.8,183.7z"/>
					<path class="st2" d="M360.4,192.5c1.6,1.9,4.6,3.2,7.9,3.2c3.4,0,6.3-1.3,7.9-3.3c-1.6-1.9-4.6-3.2-7.9-3.2
						C364.9,189.2,362,190.5,360.4,192.5z"/>
					<path class="st2" d="M366.6,199.4c1.3,1.6,3.7,2.6,6.5,2.6c2.8,0,5.1-1.1,6.4-2.7c-1.3-1.6-3.7-2.6-6.5-2.6
						C370.3,196.7,367.9,197.8,366.6,199.4z"/>
					<path class="st2" d="M371,205.5c1,1.3,3,2.2,5.2,2.2c2.2,0,4.2-0.9,5.2-2.2c-1-1.3-3-2.2-5.2-2.2
						C374,203.2,372,204.2,371,205.5z"/>
					<path class="st2" d="M372.6,212c1,1.3,3,2.2,5.2,2.2c2.2,0,4.2-0.9,5.2-2.2c-1-1.3-3-2.2-5.2-2.2
						C375.6,209.7,373.7,210.6,372.6,212z"/>
					<path class="st2" d="M374.8,218c0.8,1.3,2.4,2.4,4.5,2.7c2.1,0.3,4-0.1,5.1-1.1c-0.8-1.3-2.4-2.4-4.5-2.7
						C377.9,216.6,375.9,217.1,374.8,218z"/>
					<path class="st2" d="M376.4,225.3c1.1,0.8,2.8,1,4.6,0.5c1.8-0.5,3.1-1.6,3.7-2.8c-1.1-0.8-2.8-1-4.6-0.5
						C378.3,223,376.9,224.1,376.4,225.3z"/>
					<path class="st2" d="M379.2,230.3c0.9,0.4,2.3,0.3,3.5-0.3s2.1-1.6,2.4-2.6c-0.9-0.4-2.3-0.3-3.5,0.3
						C380.3,228.3,379.4,229.3,379.2,230.3z"/>
					<path class="st2" d="M381.6,232.2c0.6,0.3,1.4,0.3,2.2-0.1c0.8-0.4,1.3-1,1.4-1.7c-0.6-0.3-1.4-0.3-2.2,0.1
						C382.2,230.8,381.7,231.5,381.6,232.2z"/>
					<path class="st2" d="M381.8,234.2c0.6,0.3,1.4,0.3,2.2-0.1c0.8-0.4,1.3-1,1.4-1.7c-0.6-0.3-1.4-0.3-2.2,0.1
						C382.5,232.9,382,233.6,381.8,234.2z"/>
				</g>
				<g>
					<path class="st3" d="M415.2,160.8c-2.6,3.1-4.8,6.5-6.9,9.9c-2.1,3.5-4,7-5.7,10.7c-1.7,3.7-3.2,7.4-4.6,11.2
						c-1.3,3.8-2.4,7.7-3.4,11.7c-1.9,7.9-2.8,16-2.9,24.1c-0.1,8.1,0.7,16.2,2.3,24.2l1.7-0.4c-1.7-7.8-2.6-15.8-2.7-23.8
						c0-8,0.8-16,2.5-23.9c0.9-3.9,1.9-7.8,3.2-11.6c1.3-3.8,2.7-7.6,4.4-11.2c1.7-3.7,3.5-7.3,5.5-10.7c2-3.5,4.2-6.9,6.7-10
						L415.2,160.8z"/>
					<path class="st3" d="M424,147.5c0.8,2.6,0.2,6-1.8,9.1c-2,3-4.9,4.9-7.6,5.2c-0.8-2.6-0.2-6,1.8-9.1
						C418.4,149.7,421.4,147.8,424,147.5z"/>
					<path class="st3" d="M404.5,152.8c2.5,1,4.9,3.5,6,7c1.1,3.5,0.8,6.9-0.7,9.2c-2.5-1-4.9-3.5-6-7
						C402.7,158.5,403.1,155,404.5,152.8z"/>
					<path class="st3" d="M395.7,162.7c2.7,0.3,5.6,2.1,7.6,5.2c2,3,2.6,6.5,1.8,9c-2.7-0.3-5.6-2.1-7.6-5.2
						C395.5,168.7,394.9,165.2,395.7,162.7z"/>
					<path class="st3" d="M390.9,172.4c2.7,0.3,5.6,2.1,7.6,5.2c2,3,2.6,6.5,1.8,9c-2.7-0.3-5.6-2.1-7.6-5.2
						C390.7,178.5,390.1,175,390.9,172.4z"/>
					<path class="st3" d="M385.1,182.9c2.7-0.4,6,0.6,8.7,3c2.7,2.4,4.2,5.6,4.1,8.3c-2.7,0.4-6-0.6-8.7-3
						C386.5,188.7,385,185.6,385.1,182.9z"/>
					<path class="st3" d="M382.6,194.1c2.2-1,5.3-0.8,8.2,0.7c2.9,1.5,4.9,3.9,5.4,6.2c-2.2,1-5.3,0.8-8.2-0.7
						S383.1,196.4,382.6,194.1z"/>
					<path class="st3" d="M380.4,201.3c2.2-1,5.3-0.8,8.2,0.7c2.9,1.5,4.9,3.9,5.4,6.2c-2.2,1-5.3,0.8-8.2-0.7
						C382.9,206.1,380.9,203.7,380.4,201.3z"/>
					<path class="st3" d="M381.1,210.5c1.9-0.8,4.6-0.7,7,0.6c2.5,1.3,4.2,3.3,4.6,5.3c-1.9,0.8-4.6,0.7-7-0.6
						C383.2,214.6,381.5,212.5,381.1,210.5z"/>
					<path class="st3" d="M382,220c1.1-1.3,3.1-2.3,5.5-2.3c2.3,0,4.4,0.9,5.5,2.2c-1.1,1.3-3.1,2.3-5.5,2.3
						C385.2,222.2,383.2,221.3,382,220z"/>
					<path class="st3" d="M383.8,227.4c0.5-1.3,1.8-2.5,3.6-3.1s3.6-0.5,4.7,0.3c-0.5,1.3-1.8,2.5-3.6,3.1
						C386.8,228.2,385,228.1,383.8,227.4z"/>
					<path class="st3" d="M426.8,168c-1.6,2.2-4.7,3.7-8.4,3.9c-3.6,0.2-6.9-1.1-8.7-3.1c1.6-2.2,4.7-3.7,8.4-3.9
						C421.8,164.7,425,166,426.8,168z"/>
					<path class="st3" d="M422.2,176.2c-1.6,2.2-4.7,3.7-8.4,3.9c-3.6,0.2-6.9-1.1-8.7-3.1c1.6-2.2,4.7-3.7,8.4-3.9
						C417.2,173,420.4,174.2,422.2,176.2z"/>
					<path class="st3" d="M417.7,186c-1.6,2.2-4.7,3.7-8.4,3.9c-3.6,0.2-6.9-1.1-8.7-3.1c1.6-2.2,4.7-3.7,8.4-3.9
						C412.7,182.7,415.9,184,417.7,186z"/>
					<path class="st3" d="M411.4,193.8c-1.3,1.8-3.8,3-6.8,3.1c-3,0.1-5.6-0.9-7.1-2.6c1.3-1.8,3.8-3,6.8-3.1
						C407.3,191.1,409.9,192.1,411.4,193.8z"/>
					<path class="st3" d="M407,200.5c-1.1,1.5-3.1,2.5-5.5,2.6c-2.4,0.1-4.5-0.8-5.7-2.2c1.1-1.5,3.1-2.5,5.5-2.6
						C403.7,198.3,405.8,199.2,407,200.5z"/>
					<path class="st3" d="M405.6,207.6c-1.1,1.5-3.1,2.5-5.5,2.6s-4.5-0.8-5.7-2.2c1.1-1.5,3.1-2.5,5.5-2.6
						C402.2,205.3,404.4,206.2,405.6,207.6z"/>
					<path class="st3" d="M403.6,214.3c-0.8,1.4-2.5,2.7-4.7,3.1c-2.2,0.5-4.3,0.1-5.6-0.9c0.8-1.4,2.5-2.7,4.7-3.1
						C400.2,212.9,402.3,213.3,403.6,214.3z"/>
					<path class="st3" d="M402.2,222.2c-1.1,0.9-3,1.2-4.9,0.8c-1.9-0.4-3.5-1.6-4.1-2.8c1.1-0.9,3-1.2,4.9-0.8
						C400,219.8,401.6,220.9,402.2,222.2z"/>
					<path class="st3" d="M399.4,227.7c-1,0.5-2.4,0.5-3.8-0.1s-2.4-1.7-2.7-2.7c1-0.5,2.4-0.5,3.8,0.1
						C398.1,225.6,399.1,226.6,399.4,227.7z"/>
					<path class="st3" d="M397,229.8c-0.6,0.4-1.5,0.4-2.4,0c-0.9-0.4-1.4-1.1-1.6-1.8c0.6-0.4,1.5-0.4,2.4,0
						C396.2,228.4,396.8,229.1,397,229.8z"/>
					<path class="st3" d="M396.8,232.1c-0.6,0.4-1.5,0.4-2.4,0s-1.4-1.1-1.6-1.8c0.6-0.4,1.5-0.4,2.4,0
						C396.1,230.7,396.6,231.4,396.8,232.1z"/>
				</g>
				<g>
					<path class="st1" d="M377.7,225.9c-3.8-5.6-7.8-11-12.1-16.3l0.1-0.1c4.4,5.2,8.5,10.5,12.5,16.1c3.9,5.5,7.6,11.2,11,17.1
						c0.8,1.4,1.6,2.9,2.3,4.4c-0.3,0.2-0.6,0.3-0.9,0.5c-0.7-1.5-1.5-3-2.3-4.4C385.1,237.2,381.5,231.5,377.7,225.9z"/>
					<path class="st1" d="M361.4,202.5c1.4,0.1,2.9,1.1,3.8,2.6c0.9,1.5,1.1,3.3,0.5,4.6c-1.4-0.1-2.9-1.1-3.8-2.6
						C361,205.5,360.9,203.8,361.4,202.5z"/>
					<path class="st1" d="M371.9,205.7c0.6,1.1,0.6,2.8,0,4.5c-0.6,1.7-1.8,2.9-3,3.3c-0.6-1.1-0.6-2.8,0-4.5
						C369.5,207.4,370.7,206.2,371.9,205.7z"/>
					<path class="st1" d="M372.2,218c-1,0.8-2.6,1.2-4.4,1c-1.8-0.2-3.2-1.1-3.9-2.1c1-0.8,2.6-1.2,4.4-1
						C370.1,216.1,371.5,217,372.2,218z"/>
					<path class="st1" d="M376.4,223.4c-1,0.8-2.6,1.2-4.4,1c-1.8-0.2-3.2-1.1-3.9-2.1c1-0.8,2.6-1.2,4.4-1
						C374.3,221.6,375.7,222.4,376.4,223.4z"/>
					<path class="st1" d="M379.3,227.8c-1,0.8-2.6,1.2-4.4,1c-1.8-0.2-3.2-1.1-3.9-2.1c1-0.8,2.6-1.2,4.4-1
						C377.1,225.9,378.6,226.7,379.3,227.8z"/>
					<path class="st1" d="M382.5,232.6c-1,0.8-2.6,1.2-4.4,1c-1.8-0.2-3.2-1.1-3.9-2.1c1-0.8,2.6-1.2,4.4-1
						C380.3,230.7,381.8,231.5,382.5,232.6z"/>
					<path class="st1" d="M375.5,210.4c0.6,1.1,0.6,2.8,0,4.5c-0.6,1.7-1.8,2.9-3,3.3c-0.6-1.1-0.6-2.8,0-4.5
						C373.2,212.1,374.3,210.8,375.5,210.4z"/>
					<path class="st1" d="M379,215.2c0.6,1.1,0.6,2.8,0,4.5c-0.6,1.7-1.8,2.9-3,3.3c-0.6-1.1-0.6-2.8,0-4.5
						C376.7,216.9,377.9,215.6,379,215.2z"/>
					<path class="st1" d="M382.4,220c0.6,1.1,0.6,2.8,0,4.5c-0.6,1.7-1.8,2.9-3,3.3c-0.6-1.1-0.6-2.8,0-4.5
						C380,221.7,381.2,220.5,382.4,220z"/>
					<path class="st1" d="M385.6,224.8c0.6,1.1,0.6,2.8,0,4.5c-0.6,1.7-1.8,2.9-3,3.3c-0.6-1.1-0.6-2.8,0-4.5
						C383.3,226.5,384.4,225.2,385.6,224.8z"/>
				</g>
			</g>
		</g>
		
			<linearGradient id="SVGID_3_" gradientUnits="userSpaceOnUse" x1="368.3285" y1="-1.7755" x2="407.3813" y2="-1.7755" gradientTransform="matrix(1 0 0 -1 0 246)">
			<stop  offset="0" style="stop-color:#F20000"/>
			<stop  offset="1" style="stop-color:#FFA630"/>
		</linearGradient>
		<path class="st56" d="M375.2,238.7h25.3c4.2,2.1,6.9,5.3,6.9,8.9c0,3.8-3,7.2-7.7,9.3h-23.6c-4.7-2.1-7.7-5.5-7.7-9.3
			C368.3,244,371,240.8,375.2,238.7z"/>
		<path class="st5" d="M377.6,240.7c-2.5-0.3-5.8,1.6-6.7,5.4c-1.2,7.5,6.3,9.7,10.4,7.8c-3.6-0.9-7.4-2.5-7.6-6.2
			c-0.2-1.9,0.9-3.8,1-3.8c0.2-0.2,0.5-0.8,1.1-1.4C376.3,241.7,376.9,241.2,377.6,240.7z"/>
		<rect x="374" y="237.6" class="st6" width="28" height="1.8"/>
	</g>
	<g>
		<path class="st14" d="M417.7,67.1c0,0-0.1,0-0.1,0c-0.2-0.1-0.3-0.3-0.2-0.5c9-24.5-5.7-32.1-5.9-32.2c-0.2-0.1-0.3-0.3-0.2-0.5
			c0.1-0.2,0.3-0.3,0.5-0.2c0.2,0.1,15.5,8,6.3,33.1C418,67,417.9,67.1,417.7,67.1z"/>
	</g>
	<g>
		<path class="st14" d="M410,67.6c-0.1,0-0.2,0-0.3-0.1c-0.1-0.1-0.1-0.4,0-0.5c6.5-6.5,3.7-21.5,3.6-21.7c0-0.2,0.1-0.4,0.3-0.4
			c0.2,0,0.4,0.1,0.4,0.3c0.1,0.6,2.9,15.6-3.8,22.4C410.2,67.6,410.1,67.6,410,67.6z"/>
	</g>
	<path class="st20" d="M5.9,161.5l12.8,30.7l27-0.1l7-18.8c1-3.1,0.5-6.4-1.4-9.1c-1.9-2.6-4.9-4.2-8.2-4.3l-34.3-1.8
		C7,158.1,5.5,159.7,5.9,161.5z M11,163.5l32.2,1.7c1.6,0.1,3,0.9,3.9,2.2c0.9,1.3,1.1,2.9,0.6,4.4l-6.5,16.1H21.5L11,163.5z"/>
	<rect x="73.2" y="160.2" class="st57" width="225.4" height="8.2"/>
	<rect x="73.2" y="159.7" class="st58" width="225.4" height="2.6"/>
	<path class="st59" d="M61,143.6c-12.2-1.5-15,1-15-3.8c0-6.4,9.2-24.7,6.6-31.1c-0.4-0.9-2.3-3.5-4.4-1.6
		c-7.2,6.4-15.6,35.1-10,42.8c3.4,4.7,17.3,2.1,27.7,0.9c0.1-1.8,2.2-4.9,2.8-6.5C67,144.1,63.5,143.9,61,143.6z"/>
</g>
</svg>
