<?xml version="1.0" encoding="utf-8"?>
<!-- Generator: Adobe Illustrator 23.0.5, SVG Export Plug-In . SVG Version: 6.00 Build 0)  -->
<svg version="1.1" id="Layer_1" xmlns="http://www.w3.org/2000/svg" xmlns:xlink="http://www.w3.org/1999/xlink" x="0px" y="0px"
	 width="343px" height="343px" viewBox="0 0 343 343" style="enable-background:new 0 0 343 343;" xml:space="preserve">
<style type="text/css">
	.st0{fill:#C4F9F5;}
	.st1{fill:#FFFFFF;}
	.st2{fill:#C6EDFF;}
	.st3{fill:#95DAFF;}
	.st4{fill:#DBFFFF;}
	.st5{opacity:0.57;fill:#FFF9FF;}
	.st6{fill:#FFBC00;}
	.st7{fill:#0099FF;}
	.st8{fill:#26B7D9;}
	.st9{fill:#57C4E9;}
	.st10{fill:#7ACFF5;}
	.st11{fill:#FF9900;}
	.st12{fill:#003F84;}
	.st13{fill:#E1F1FF;}
	.st14{font-family:'Montserrat-SemiBold';}
	.st15{font-size:8.5406px;}
	.st16{fill:#FF9E76;}
	.st17{fill:#002851;}
	.st18{fill:#FFB796;}
	.st19{fill:#FFAE81;}
	.st20{fill:#002D65;}
	.st21{fill:#004D93;}
	.st22{fill:#FFAB00;}
	.st23{fill:#FF69A9;}
	.st24{fill:#FFD800;}
</style>
<g>
	<g>
		<path class="st0" d="M295.14,230.03c0,0,66.42-103.48,35.81-169.65S227.29-6.17,202.04,21.48c-15.43,16.9-10.94,45.14-47.48,56.06
			c-22.35,6.68-38.63-4.03-71.95-15.65S10.6,75.53,5.85,115.86c-5.34,45.27,35.87,68.93,58.48,85.22s11.16,43.32,20.54,68.63
			C94.25,295.02,245.48,321.89,295.14,230.03z"/>
		<path class="st1" d="M328,115.86c0,0,5.05-58.49-32.86-87.56c-32.61-25-65.2-12.88-75.46-1.89s0.97,24.25,29.3,22.35
			S320.3,66.44,328,115.86z"/>
	</g>
	<g>
		<g>
			<ellipse class="st2" cx="147.43" cy="331.35" rx="36.12" ry="7.81"/>
			<ellipse class="st2" cx="275.57" cy="323.54" rx="36.12" ry="7.81"/>
			<ellipse class="st2" cx="218.11" cy="315.74" rx="93.73" ry="7.81"/>
			<ellipse class="st2" cx="104.33" cy="310.42" rx="93.73" ry="7.81"/>
		</g>
		<g>
			<g>
				<g>
					<g>
						<g>
							<g>
								<g>
									<g>
										<circle class="st3" cx="82.29" cy="157.02" r="59.53"/>
										<circle class="st4" cx="82.29" cy="157.02" r="51.56"/>
										<path class="st5" d="M100.73,159.03c7.19-10.87,7.95-30.45,4.34-40.88c-6.59-3.87-14.24-6.12-22.43-6.19
											c-24.89-0.2-45.22,19.82-45.42,44.71c-0.06,7.2,1.59,14.01,4.54,20.07c0.35,0.05,0.72,0.02,1.05,0.15
											C59.27,183.75,87.21,179.46,100.73,159.03z"/>
									</g>
								</g>
								<g>
									<g>
										<g>
											<g>
												<g>
													<path class="st3" d="M82.56,122.26L82.56,122.26c0.87,0.01,1.58-0.7,1.59-1.56l0.08-9.65c0.01-0.87-0.7-1.58-1.56-1.59
														h0c-0.87-0.01-1.58,0.7-1.59,1.56L81,120.68C80.99,121.54,81.7,122.26,82.56,122.26z"/>
													<path class="st3" d="M81.92,204.58L81.92,204.58c0.87,0.01,1.58-0.7,1.59-1.56l0.08-9.65c0.01-0.87-0.7-1.58-1.56-1.59
														h0c-0.87-0.01-1.58,0.7-1.59,1.56l-0.08,9.65C80.35,203.86,81.05,204.57,81.92,204.58z"/>
												</g>
											</g>
											<g>
												<g>
													<path class="st3" d="M117.04,157.29L117.04,157.29c-0.01,0.87,0.7,1.58,1.56,1.59l9.65,0.08
														c0.87,0.01,1.58-0.7,1.59-1.56l0,0c0.01-0.87-0.7-1.58-1.56-1.59l-9.65-0.08
														C117.77,155.72,117.05,156.43,117.04,157.29z"/>
													<path class="st3" d="M34.73,156.65L34.73,156.65c-0.01,0.87,0.7,1.58,1.56,1.59l9.65,0.08
														c0.87,0.01,1.58-0.7,1.59-1.56l0,0c0.01-0.87-0.7-1.58-1.56-1.59l-9.65-0.08C35.45,155.08,34.74,155.78,34.73,156.65z"
														/>
												</g>
											</g>
										</g>
										<g>
											<circle class="st3" cx="103.73" cy="120.55" r="1.58"/>
											<circle class="st3" cx="60.85" cy="193.49" r="1.58"/>
										</g>
										<g>
											<circle class="st3" cx="119.09" cy="136.16" r="1.58"/>
											<circle class="st3" cx="45.49" cy="177.88" r="1.58"/>
										</g>
										<g>
											<circle class="st3" cx="118.76" cy="178.46" r="1.58"/>
											<circle class="st3" cx="45.82" cy="135.58" r="1.58"/>
										</g>
										<g>
											<circle class="st3" cx="103.15" cy="193.82" r="1.58"/>
											<circle class="st3" cx="61.43" cy="120.22" r="1.58"/>
										</g>
									</g>
								</g>
							</g>
							<g>
								<path class="st6" d="M98.29,145.17c4.71-1.84,26.71-11.3,26.71-11.3l0.08,0.15l0.16,0.3l0.08,0.15
									c0,0-20.02,13.14-24.15,16.06c-4.13,2.92-18.78,7.48-18.78,7.48l-0.27-0.5l-0.16-0.3l-0.27-0.5
									C81.69,156.72,93.58,147.01,98.29,145.17z"/>
								<path class="st6" d="M67.33,160.22c-3.61-0.56-20.73-2.39-20.73-2.39l0-0.17l-0.01-0.34l0-0.17c0,0,17.06-2.34,20.65-3.01
									s14.43,2.09,14.43,2.09l0.01,0.56l0.01,0.34l0.01,0.56C81.69,157.7,70.94,160.78,67.33,160.22z"/>
								<circle class="st3" cx="82.29" cy="157.02" r="3.15"/>
							</g>
						</g>
					</g>
					<g>
						<g>
							<path class="st3" d="M51,221.39l-14.02,83.99c-0.16,0.97,0.58,1.85,1.56,1.85l0,0c0.75,0,1.39-0.52,1.55-1.25l18.36-84.59H51
								z"/>
							<path class="st3" d="M64.55,216.35l-9.88,84.58c-0.11,0.97,0.67,1.82,1.65,1.77h0c0.75-0.04,1.36-0.59,1.49-1.32l14.18-85.39
								L64.55,216.35z"/>
						</g>
						<g>
							<path class="st3" d="M122.52,221.39l14.02,83.99c0.16,0.97-0.58,1.85-1.56,1.85l0,0c-0.75,0-1.39-0.52-1.55-1.25
								l-18.36-84.59H122.52z"/>
							<path class="st3" d="M108.96,216.35l9.88,84.58c0.11,0.97-0.67,1.82-1.65,1.77h0c-0.75-0.04-1.36-0.59-1.49-1.32
								l-14.18-85.39L108.96,216.35z"/>
						</g>
						<path class="st7" d="M134.38,223.35H40.55c-2.13,0-3.88-1.75-3.88-3.88v0c0-2.13,1.75-3.88,3.88-3.88h93.84
							c2.13,0,3.88,1.75,3.88,3.88v0C138.26,221.6,136.51,223.35,134.38,223.35z"/>
					</g>
				</g>
				<g>
					<g>
						<path class="st8" d="M41.7,288.15l-0.24-0.09c0.03-0.08,2.8-8.04,1.2-17.45c-1.47-8.68-7.07-20.42-25.38-27.05l0.09-0.24
							c8.14,2.94,14.48,7.13,18.85,12.44c3.5,4.26,5.75,9.24,6.7,14.81C44.52,280.06,41.73,288.07,41.7,288.15z"/>
					</g>
					<g>
						<path class="st8" d="M19.86,244.43c0,0-4.82,0.73-7.3-1.49C10.08,240.73,14.31,239.65,19.86,244.43z"/>
					</g>
					<g>
						<path class="st8" d="M24.85,246.8c0,0-1.51-6.37-3.85-7.62S18.33,242.46,24.85,246.8z"/>
					</g>
					<g>
						<path class="st8" d="M24.08,246.36c0,0-6.48-0.92-8.5,0.8S17.66,250.84,24.08,246.36z"/>
					</g>
					<g>
						<path class="st8" d="M28.06,248.8c0,0-6.48-0.92-8.5,0.8C17.54,251.32,21.64,253.28,28.06,248.8z"/>
					</g>
					<g>
						<path class="st8" d="M32.07,251.63c0,0-6.48-0.92-8.5,0.8S25.65,256.11,32.07,251.63z"/>
					</g>
					<g>
						<path class="st8" d="M35.95,255.54c0,0-6.39-1.44-8.54,0.11S29.2,259.5,35.95,255.54z"/>
					</g>
					<g>
						<path class="st8" d="M39.5,260.74c0,0-5.94-2.76-8.37-1.7C28.7,260.1,32.06,263.17,39.5,260.74z"/>
					</g>
					<g>
						<path class="st8" d="M42.09,267.1c0,0-4.74-4.51-7.39-4.29C32.05,263.04,34.26,267.02,42.09,267.1z"/>
					</g>
					<g>
						<path class="st8" d="M43.21,274.54c0,0-2.96-5.84-5.53-6.51S35.86,271.85,43.21,274.54z"/>
					</g>
					<g>
						<path class="st8" d="M42.93,281.85c0,0-1.54-6.36-3.88-7.61S36.39,277.54,42.93,281.85z"/>
					</g>
					<g>
						<path class="st8" d="M29.31,249.57c0,0,0.64-5.6-1.52-8.59c-2.15-2.99-2.88,0.44-2.05,2.37
							C26.56,245.28,29.31,249.57,29.31,249.57z"/>
					</g>
					<g>
						<path class="st8" d="M32.58,252.16c0,0,1.51-5.43-0.14-8.72c-1.65-3.3-2.91-0.02-2.4,2.02
							C30.55,247.49,32.58,252.16,32.58,252.16z"/>
					</g>
					<g>
						<path class="st8" d="M35.62,255.22c0,0,2.73-4.93,1.89-8.52c-0.84-3.59-2.83-0.7-2.8,1.4S35.62,255.22,35.62,255.22z"/>
					</g>
					<g>
						<path class="st8" d="M38.58,259.15c0,0,2.73-4.93,1.89-8.52s-2.83-0.7-2.8,1.4C37.69,254.14,38.58,259.15,38.58,259.15z"/>
					</g>
					<g>
						<path class="st8" d="M41.16,264.53c0,0,3.34-4.54,2.97-8.21c-0.37-3.67-2.72-1.06-2.96,1.03
							C40.92,259.44,41.16,264.53,41.16,264.53z"/>
					</g>
					<g>
						<path class="st8" d="M42.91,271.68c0,0,4.14-3.82,4.47-7.49c0.33-3.67-2.47-1.55-3.1,0.45S42.91,271.68,42.91,271.68z"/>
					</g>
					<g>
						<path class="st8" d="M43.2,278.17c0,0,4.83-2.91,5.89-6.44c1.06-3.53-2.1-2.02-3.13-0.18
							C44.93,273.38,43.2,278.17,43.2,278.17z"/>
					</g>
				</g>
				<g>
					<g>
						<path class="st8" d="M72.79,275.63l0.24-0.09c-0.03-0.08-2.8-8.04-1.2-17.45c1.47-8.68,7.07-20.42,25.38-27.05l-0.09-0.24
							c-8.14,2.94-14.48,7.13-18.85,12.44c-3.5,4.26-5.75,9.24-6.7,14.81C69.97,267.54,72.76,275.55,72.79,275.63z"/>
					</g>
					<g>
						<path class="st8" d="M94.64,231.9c0,0,4.82,0.73,7.3-1.49C104.42,228.2,100.19,227.13,94.64,231.9z"/>
					</g>
					<g>
						<path class="st8" d="M89.65,234.27c0,0,1.51-6.37,3.85-7.62S96.16,229.93,89.65,234.27z"/>
					</g>
					<g>
						<path class="st8" d="M90.41,233.83c0,0,6.48-0.92,8.5,0.8S96.83,238.32,90.41,233.83z"/>
					</g>
					<g>
						<path class="st8" d="M86.43,236.27c0,0,6.48-0.92,8.5,0.8C96.95,238.79,92.85,240.76,86.43,236.27z"/>
					</g>
					<g>
						<path class="st8" d="M82.42,239.11c0,0,6.48-0.92,8.5,0.8C92.94,241.62,88.84,243.59,82.42,239.11z"/>
					</g>
					<g>
						<path class="st8" d="M78.54,243.02c0,0,6.39-1.44,8.54,0.11C89.23,244.69,85.3,246.97,78.54,243.02z"/>
					</g>
					<g>
						<path class="st8" d="M74.99,248.21c0,0,5.94-2.76,8.37-1.7C85.79,247.58,82.43,250.65,74.99,248.21z"/>
					</g>
					<g>
						<path class="st8" d="M72.41,254.58c0,0,4.74-4.51,7.39-4.29S80.24,254.5,72.41,254.58z"/>
					</g>
					<g>
						<path class="st8" d="M71.28,262.02c0,0,2.96-5.84,5.53-6.51S78.63,259.33,71.28,262.02z"/>
					</g>
					<g>
						<path class="st8" d="M71.57,269.32c0,0,1.54-6.36,3.88-7.61C77.8,260.48,78.11,265.02,71.57,269.32z"/>
					</g>
					<g>
						<path class="st8" d="M85.19,237.04c0,0-0.64-5.6,1.52-8.59c2.15-2.99,2.88,0.44,2.05,2.37S85.19,237.04,85.19,237.04z"/>
					</g>
					<g>
						<path class="st8" d="M81.92,239.64c0,0-1.51-5.43,0.14-8.72s2.91-0.02,2.4,2.02S81.92,239.64,81.92,239.64z"/>
					</g>
					<g>
						<path class="st8" d="M78.88,242.69c0,0-2.73-4.93-1.89-8.52s2.83-0.7,2.8,1.4S78.88,242.69,78.88,242.69z"/>
					</g>
					<g>
						<path class="st8" d="M75.91,246.63c0,0-2.73-4.93-1.89-8.52c0.84-3.59,2.83-0.7,2.8,1.4
							C76.8,241.61,75.91,246.63,75.91,246.63z"/>
					</g>
					<g>
						<path class="st8" d="M73.33,252.01c0,0-3.34-4.54-2.97-8.21c0.37-3.67,2.72-1.06,2.96,1.03
							C73.57,246.92,73.33,252.01,73.33,252.01z"/>
					</g>
					<g>
						<path class="st8" d="M71.59,259.15c0,0-4.14-3.82-4.47-7.49c-0.33-3.67,2.47-1.55,3.1,0.45
							C70.86,254.11,71.59,259.15,71.59,259.15z"/>
					</g>
					<g>
						<path class="st8" d="M71.29,265.64c0,0-4.83-2.91-5.89-6.44c-1.06-3.53,2.1-2.02,3.13-0.18S71.29,265.64,71.29,265.64z"/>
					</g>
				</g>
				<g>
					<g>
						<g>
							<path class="st9" d="M44.89,264.72c0,0-5.63-16.65-0.56-21.44c5.06-4.78-1.22-11.57,0.27-15.99
								c1.49-4.42,6.94-7.05,9.32,1.06c2.38,8.11,3.05,8.36,9.03,8.74c5.98,0.37,5.52,12.4,4.46,17.94s4.81-3.21,6.59,2.73
								c1.77,5.94-6.82,18.19-15.87,24.58c-9.04,6.39-20.11-11.78-19.35-16.32S42.86,267.56,44.89,264.72z"/>
						</g>
						<g>
							<path class="st8" d="M45.69,241.49c-0.31,0.62-0.75,1.22-1.36,1.79c-5.06,4.78,0.56,21.44,0.56,21.44
								c-2.04,2.84-5.36-3.24-6.12,1.3c-0.76,4.54,10.3,22.7,19.35,16.32c0.49-0.34,0.97-0.71,1.45-1.08
								C58.53,267.06,53.73,253.44,45.69,241.49z"/>
						</g>
						<g>
							<g>
								<path class="st10" d="M55.05,283.92c-0.09,0.1-0.23,0.15-0.37,0.12c-0.22-0.04-0.36-0.25-0.32-0.47
									c0.04-0.23,4.21-23.01-6.32-56.04c-0.07-0.21,0.05-0.44,0.26-0.5c0.21-0.07,0.44,0.05,0.5,0.26
									c10.6,33.24,6.39,56.21,6.35,56.43C55.13,283.8,55.09,283.87,55.05,283.92z"/>
							</g>
							<g>
								<path class="st10" d="M51.19,237.34l-5.33-4.29c-0.17-0.14-0.2-0.39-0.06-0.56c0.14-0.17,0.39-0.2,0.56-0.06l4.61,3.72
									l2.43-4.07c0.11-0.19,0.36-0.25,0.55-0.14c0.19,0.11,0.25,0.36,0.14,0.55L51.19,237.34z"/>
							</g>
							<g>
								<path class="st10" d="M64.23,240.6c-0.01,0.01-0.02,0.02-0.03,0.03l-10.37,9.49l-8.24-5.6c-0.18-0.12-0.23-0.37-0.11-0.56
									c0.12-0.18,0.37-0.23,0.56-0.11l7.71,5.24l9.9-9.06c0.16-0.15,0.42-0.14,0.57,0.03C64.37,240.22,64.36,240.45,64.23,240.6z"
									/>
							</g>
							<g>
								<path class="st10" d="M66.47,253.83c0,0-0.01,0.01-0.01,0.01l-10.99,11.08l-10.85-8.65c-0.17-0.14-0.2-0.39-0.06-0.56
									c0.15-0.18,0.39-0.2,0.56-0.06l10.29,8.2l10.48-10.57c0.16-0.16,0.41-0.16,0.57,0C66.61,253.42,66.62,253.67,66.47,253.83z"
									/>
							</g>
							<g>
								<path class="st10" d="M71.2,261.63c0,0-0.01,0.01-0.01,0.01L55.5,277.59l-13.45-9.4c-0.18-0.13-0.23-0.38-0.1-0.56
									c0.13-0.18,0.38-0.23,0.56-0.1l12.89,9.02l15.21-15.46c0.16-0.16,0.41-0.16,0.57,0C71.34,261.23,71.34,261.48,71.2,261.63z"
									/>
							</g>
						</g>
					</g>
					<g>
						<g>
							<path class="st10" d="M42.36,286.13c0,0-12.29-6.15-12.11-11.6c0.18-5.44-7.05-5.75-8.66-9.03
								c-1.61-3.28-0.03-7.74,5.76-4.54s6.3,2.96,9.82-0.12c3.52-3.08,9.89,3.85,12.35,7.51c2.46,3.66,0.91-4.43,5.16-2.11
								s6.23,13.86,4.72,22.39c-1.51,8.53-17.65,4.53-19.73,1.59C37.6,287.28,42.79,288.83,42.36,286.13z"/>
						</g>
						<g>
							<path class="st9" d="M30.01,272.79c0.17,0.52,0.25,1.09,0.23,1.74c-0.18,5.44,12.11,11.6,12.11,11.6
								c0.43,2.7-4.76,1.15-2.68,4.09c2.08,2.94,18.22,6.94,19.73-1.59c0.08-0.46,0.15-0.93,0.21-1.4
								C51.21,279.92,41.05,275,30.01,272.79z"/>
						</g>
						<g>
							<g>
								<path class="st3" d="M58.57,291.21c0,0.11-0.04,0.21-0.14,0.27c-0.14,0.1-0.34,0.06-0.43-0.09
									c-0.1-0.15-10.33-15.1-34.36-27.64c-0.15-0.08-0.21-0.27-0.13-0.42c0.08-0.15,0.27-0.21,0.42-0.13
									c24.19,12.62,34.49,27.7,34.59,27.85C58.55,291.1,58.57,291.15,58.57,291.21z"/>
							</g>
							<g>
								<path class="st3" d="M30.78,267.45L25.46,268c-0.17,0.02-0.33-0.11-0.34-0.28c-0.02-0.17,0.11-0.33,0.28-0.34L30,266.9
									l-0.89-3.6c-0.04-0.17,0.06-0.34,0.23-0.38c0.17-0.04,0.34,0.06,0.38,0.23L30.78,267.45z"/>
							</g>
							<g>
								<path class="st3" d="M39.82,262.09c0,0.01,0,0.02,0,0.03l-0.54,10.98l-7.66,1.43c-0.17,0.03-0.33-0.08-0.37-0.25
									c-0.03-0.17,0.08-0.33,0.25-0.37l7.17-1.34l0.51-10.48c0.01-0.17,0.16-0.31,0.33-0.3C39.68,261.8,39.81,261.93,39.82,262.09
									z"/>
							</g>
							<g>
								<path class="st3" d="M48.34,268.2c0,0,0,0.01,0,0.01l0,12.2l-10.79,1.17c-0.17,0.02-0.33-0.11-0.35-0.28
									c-0.01-0.18,0.11-0.33,0.28-0.35l10.23-1.11l0-11.64c0-0.17,0.14-0.31,0.31-0.31C48.2,267.9,48.34,268.03,48.34,268.2z"/>
							</g>
							<g>
								<path class="st3" d="M55.27,269.94c0,0,0,0.01,0,0.01l0.06,17.49l-12.65,2.18c-0.17,0.03-0.33-0.08-0.36-0.26
									c-0.03-0.17,0.09-0.33,0.26-0.36l12.12-2.09l-0.06-16.96c0-0.17,0.14-0.31,0.31-0.31
									C55.12,269.64,55.26,269.77,55.27,269.94z"/>
							</g>
						</g>
					</g>
					<g>
						<g>
							<g>
								<path class="st3" d="M70,284.4c0,0,16.2-6.82,16.43-13.78s9.48-6.75,11.8-10.79c2.33-4.04,0.68-9.87-6.97-6.28
									c-7.65,3.59-8.29,3.25-12.52-0.98c-4.24-4.23-12.95,4.08-16.39,8.54c-3.45,4.46-0.78-5.73-6.41-3.12
									c-5.63,2.61-9.11,17.16-7.9,28.17c1.21,11.01,22.14,7.26,25.04,3.68S69.22,287.81,70,284.4z"/>
							</g>
						</g>
						<g>
							<path class="st10" d="M86.87,268.41c-0.26,0.65-0.42,1.37-0.44,2.21C86.2,277.58,70,284.4,70,284.4
								c-0.78,3.41,5.98,1.87,3.08,5.45c-2.9,3.58-23.83,7.32-25.04-3.68c-0.06-0.59-0.11-1.19-0.15-1.8
								C59.22,275.73,72.6,270.31,86.87,268.41z"/>
						</g>
						<g>
							<g>
								<path class="st2" d="M48.89,289.51c-0.01,0.13,0.04,0.27,0.15,0.36c0.18,0.14,0.43,0.1,0.56-0.07
									c0.14-0.18,14.45-18.4,46.17-32.38c0.2-0.09,0.3-0.33,0.2-0.53c-0.09-0.2-0.33-0.29-0.53-0.2
									c-31.93,14.07-46.34,32.44-46.48,32.63C48.92,289.37,48.9,289.44,48.89,289.51z"/>
							</g>
							<g>
								<path class="st2" d="M86.34,261.54l6.75,1.15c0.22,0.04,0.43-0.11,0.46-0.33c0.03-0.22-0.11-0.43-0.33-0.46l-5.84-0.99
									l1.44-4.52c0.07-0.21-0.05-0.44-0.26-0.5c-0.21-0.07-0.44,0.05-0.5,0.26L86.34,261.54z"/>
							</g>
							<g>
								<path class="st2" d="M75.26,253.94c0,0.01,0,0.02,0,0.04l-0.24,14.05l9.65,2.46c0.21,0.05,0.43-0.07,0.49-0.29
									c0.06-0.22-0.07-0.43-0.29-0.49l-9.04-2.31l0.23-13.42c0-0.22-0.17-0.4-0.39-0.41C75.46,253.58,75.29,253.73,75.26,253.94z"
									/>
							</g>
							<g>
								<path class="st2" d="M63.87,261.01c0,0.01,0,0.01,0,0.02l-1.02,15.57l13.67,2.4c0.22,0.04,0.43-0.11,0.46-0.33
									c0.03-0.23-0.11-0.43-0.33-0.46l-12.96-2.27l0.97-14.85c0.01-0.22-0.15-0.41-0.37-0.43
									C64.08,260.64,63.89,260.8,63.87,261.01z"/>
							</g>
							<g>
								<path class="st2" d="M54.89,262.65c0,0.01,0,0.01,0,0.02l-1.55,22.31l15.95,3.85c0.22,0.05,0.43-0.08,0.48-0.3
									c0.05-0.22-0.08-0.43-0.3-0.48l-15.3-3.69l1.5-21.64c0.02-0.22-0.15-0.41-0.37-0.43C55.1,262.28,54.91,262.43,54.89,262.65z
									"/>
							</g>
						</g>
					</g>
					<g>
						<g>
							<path class="st9" d="M117.23,263.67c0,0,4.68-13.87,0.47-17.85c-4.22-3.98,1.02-9.64-0.22-13.32
								c-1.24-3.68-5.78-5.87-7.76,0.89c-1.98,6.75-2.54,6.96-7.52,7.27c-4.98,0.31-4.59,10.33-3.71,14.94
								c0.88,4.61-4.01-2.67-5.48,2.28c-1.48,4.95,5.68,15.15,13.21,20.47c7.53,5.32,16.74-9.8,16.11-13.59
								C121.7,260.97,118.93,266.03,117.23,263.67z"/>
						</g>
						<g>
							<path class="st8" d="M116.57,244.32c0.26,0.52,0.63,1.02,1.13,1.49c4.22,3.98-0.47,17.85-0.47,17.85
								c1.7,2.37,4.46-2.7,5.09,1.08c0.63,3.78-8.58,18.9-16.11,13.59c-0.4-0.29-0.81-0.59-1.21-0.9
								C105.88,265.61,109.88,254.27,116.57,244.32z"/>
						</g>
						<g>
							<g>
								<path class="st10" d="M108.78,279.65c0.08,0.08,0.19,0.13,0.31,0.1c0.18-0.03,0.3-0.21,0.26-0.39
									c-0.04-0.19-3.51-19.16,5.27-46.66c0.06-0.18-0.04-0.36-0.22-0.42c-0.18-0.06-0.36,0.04-0.42,0.22
									c-8.83,27.67-5.32,46.8-5.29,46.99C108.71,279.55,108.74,279.61,108.78,279.65z"/>
							</g>
							<g>
								<path class="st10" d="M111.99,240.86l4.44-3.58c0.14-0.12,0.17-0.33,0.05-0.47c-0.12-0.14-0.33-0.17-0.47-0.05l-3.84,3.09
									l-2.02-3.39c-0.1-0.16-0.3-0.21-0.46-0.12c-0.16,0.09-0.21,0.3-0.12,0.46L111.99,240.86z"/>
							</g>
							<g>
								<path class="st10" d="M101.14,243.58c0.01,0.01,0.01,0.02,0.02,0.02l8.63,7.9l6.86-4.66c0.15-0.1,0.19-0.31,0.09-0.46
									c-0.1-0.15-0.31-0.19-0.46-0.09l-6.42,4.36l-8.24-7.54c-0.14-0.12-0.35-0.11-0.47,0.02
									C101.02,243.26,101.02,243.46,101.14,243.58z"/>
							</g>
							<g>
								<path class="st10" d="M99.27,254.59c0,0,0.01,0.01,0.01,0.01l9.15,9.22l9.03-7.2c0.14-0.12,0.17-0.32,0.05-0.47
									c-0.12-0.15-0.32-0.17-0.47-0.05l-8.57,6.83l-8.73-8.8c-0.13-0.13-0.34-0.13-0.47,0C99.15,254.26,99.15,254.46,99.27,254.59
									z"/>
							</g>
							<g>
								<path class="st10" d="M95.33,261.1C95.33,261.1,95.34,261.1,95.33,261.1l13.07,13.28l11.2-7.83
									c0.15-0.11,0.19-0.31,0.08-0.46c-0.11-0.15-0.31-0.19-0.46-0.08l-10.74,7.51l-12.67-12.87c-0.13-0.13-0.34-0.13-0.47,0
									C95.22,260.76,95.21,260.96,95.33,261.1z"/>
							</g>
						</g>
					</g>
					<g>
						<g>
							<path class="st10" d="M98.34,283c0,0-12.29-6.15-12.11-11.6s-7.05-5.75-8.66-9.03c-1.61-3.28-0.03-7.74,5.76-4.54
								s6.3,2.96,9.82-0.12c3.52-3.08,9.89,3.85,12.35,7.51c2.46,3.66,0.91-4.43,5.16-2.11s6.23,13.86,4.72,22.39
								s-17.65,4.53-19.73,1.59C93.58,284.15,98.77,285.7,98.34,283z"/>
						</g>
						<g>
							<path class="st9" d="M85.99,269.66c0.17,0.52,0.25,1.09,0.23,1.74c-0.18,5.44,12.11,11.6,12.11,11.6
								c0.43,2.7-4.76,1.15-2.68,4.09c2.08,2.94,18.22,6.94,19.73-1.59c0.08-0.46,0.15-0.93,0.21-1.4
								C107.2,276.79,97.03,271.87,85.99,269.66z"/>
						</g>
						<g>
							<g>
								<path class="st3" d="M114.55,288.07c0,0.11-0.04,0.21-0.14,0.27c-0.14,0.1-0.34,0.06-0.43-0.09
									c-0.1-0.15-10.33-15.1-34.36-27.64c-0.15-0.08-0.21-0.27-0.13-0.42c0.08-0.15,0.27-0.21,0.42-0.13
									c24.19,12.62,34.49,27.7,34.59,27.85C114.53,287.96,114.55,288.02,114.55,288.07z"/>
							</g>
							<g>
								<path class="st3" d="M86.76,264.32l-5.32,0.55c-0.17,0.02-0.33-0.11-0.34-0.28c-0.02-0.17,0.11-0.33,0.28-0.34l4.61-0.48
									l-0.89-3.6c-0.04-0.17,0.06-0.34,0.23-0.38c0.17-0.04,0.34,0.06,0.38,0.23L86.76,264.32z"/>
							</g>
							<g>
								<path class="st3" d="M95.8,258.96c0,0.01,0,0.02,0,0.03l-0.54,10.98l-7.66,1.43c-0.17,0.03-0.33-0.08-0.37-0.25
									c-0.03-0.17,0.08-0.33,0.25-0.37l7.17-1.34l0.51-10.48c0.01-0.17,0.16-0.31,0.33-0.3C95.66,258.67,95.79,258.8,95.8,258.96z
									"/>
							</g>
							<g>
								<path class="st3" d="M104.33,265.07c0,0,0,0.01,0,0.01l0,12.2l-10.79,1.17c-0.17,0.02-0.33-0.11-0.35-0.28
									c-0.01-0.18,0.11-0.33,0.28-0.35l10.23-1.11l0-11.64c0-0.17,0.14-0.31,0.31-0.31C104.18,264.77,104.32,264.9,104.33,265.07z
									"/>
							</g>
							<g>
								<path class="st3" d="M111.25,266.8c0,0,0,0.01,0,0.01l0.06,17.49l-12.65,2.18c-0.17,0.03-0.33-0.08-0.36-0.26
									c-0.03-0.17,0.09-0.33,0.26-0.36l12.12-2.09l-0.06-16.96c0-0.17,0.14-0.31,0.31-0.31
									C111.11,266.5,111.24,266.64,111.25,266.8z"/>
							</g>
						</g>
					</g>
					<g>
						<g>
							<path class="st9" d="M81.48,286.47c0,0-11.16-1.45-12.49-5.71s-7-2.56-9.12-4.66s-2.1-5.98,3.24-5.06s5.67,0.6,7.57-2.73
								s8.69,0.32,11.57,2.49c2.89,2.17-0.49-3.67,3.43-3.02c3.92,0.65,8.54,9.05,9.67,16.05c1.13,7-12.43,8.25-14.83,6.53
								S82.54,288.45,81.48,286.47z"/>
						</g>
						<g>
							<path class="st8" d="M68.34,279.47c0.27,0.36,0.49,0.78,0.65,1.29c1.33,4.26,12.49,5.71,12.49,5.71
								c1.06,1.97-3.37,2.17-0.97,3.89c2.4,1.72,15.96,0.47,14.83-6.53c-0.06-0.38-0.13-0.76-0.21-1.14
								C86.66,279.29,77.48,278.21,68.34,279.47z"/>
						</g>
						<g>
							<g>
								<path class="st10" d="M95.38,286.04c0.03,0.08,0.02,0.17-0.03,0.25c-0.09,0.11-0.25,0.14-0.36,0.05
									c-0.12-0.09-12.05-8.9-34.01-12.14c-0.14-0.02-0.24-0.15-0.22-0.29c0.02-0.14,0.15-0.24,0.29-0.22
									c22.1,3.26,34.13,12.15,34.25,12.24C95.34,285.96,95.37,286,95.38,286.04z"/>
							</g>
							<g>
								<path class="st10" d="M67.5,275.14l-3.97,1.86c-0.13,0.06-0.28,0-0.34-0.12c-0.06-0.13,0-0.28,0.12-0.34l3.44-1.61
									l-1.66-2.54c-0.08-0.12-0.04-0.28,0.07-0.36c0.12-0.08,0.28-0.04,0.36,0.07L67.5,275.14z"/>
							</g>
							<g>
								<path class="st10" d="M73.05,268.56c0,0.01,0.01,0.02,0.01,0.02l2.54,8.64l-5.54,3.16c-0.12,0.07-0.28,0.03-0.35-0.1
									c-0.07-0.12-0.03-0.28,0.1-0.35l5.19-2.96l-2.42-8.25c-0.04-0.14,0.04-0.28,0.17-0.32C72.87,268.37,73,268.44,73.05,268.56z
									"/>
							</g>
							<g>
								<path class="st10" d="M81.29,270.99c0,0,0,0.01,0,0.01l3.28,9.44l-8.03,3.81c-0.13,0.06-0.28,0.01-0.34-0.12
									c-0.06-0.13-0.01-0.28,0.12-0.34l7.61-3.61l-3.13-9c-0.05-0.13,0.02-0.28,0.16-0.33C81.1,270.8,81.24,270.87,81.29,270.99z"
									/>
							</g>
							<g>
								<path class="st10" d="M87.11,270.47C87.11,270.48,87.11,270.48,87.11,270.47l4.75,13.52l-9.2,5.09
									c-0.12,0.07-0.28,0.02-0.35-0.1c-0.07-0.12-0.02-0.28,0.1-0.35l8.82-4.88l-4.61-13.1c-0.05-0.13,0.02-0.28,0.16-0.33
									C86.92,270.28,87.06,270.35,87.11,270.47z"/>
							</g>
						</g>
					</g>
					<g>
						<g>
							<g>
								<path class="st3" d="M125.98,284.4c0,0,16.2-6.82,16.43-13.78c0.23-6.96,9.48-6.75,11.8-10.79
									c2.33-4.04,0.68-9.87-6.97-6.28c-7.65,3.59-8.29,3.25-12.52-0.98c-4.24-4.23-12.95,4.08-16.39,8.54
									c-3.45,4.46-0.78-5.73-6.41-3.12c-5.63,2.61-9.11,17.16-7.9,28.17c1.21,11.01,22.14,7.26,25.04,3.68
									C131.95,286.27,125.2,287.81,125.98,284.4z"/>
							</g>
						</g>
						<g>
							<path class="st10" d="M142.86,268.41c-0.26,0.65-0.42,1.37-0.44,2.21c-0.23,6.96-16.43,13.78-16.43,13.78
								c-0.78,3.41,5.98,1.87,3.08,5.45s-23.83,7.32-25.04-3.68c-0.06-0.59-0.11-1.19-0.15-1.8
								C115.2,275.73,128.58,270.31,142.86,268.41z"/>
						</g>
						<g>
							<g>
								<path class="st2" d="M104.87,289.51c-0.01,0.13,0.04,0.27,0.15,0.36c0.18,0.14,0.43,0.1,0.56-0.07
									c0.14-0.18,14.45-18.4,46.17-32.38c0.2-0.09,0.3-0.33,0.21-0.53c-0.09-0.2-0.33-0.29-0.53-0.2
									c-31.93,14.07-46.34,32.44-46.48,32.63C104.9,289.37,104.88,289.44,104.87,289.51z"/>
							</g>
							<g>
								<path class="st2" d="M142.32,261.54l6.75,1.15c0.22,0.04,0.43-0.11,0.46-0.33c0.03-0.22-0.11-0.43-0.33-0.46l-5.84-0.99
									l1.44-4.52c0.07-0.21-0.05-0.44-0.26-0.5c-0.21-0.07-0.44,0.05-0.5,0.26L142.32,261.54z"/>
							</g>
							<g>
								<path class="st2" d="M131.24,253.94c0,0.01,0,0.02,0,0.04L131,268.03l9.65,2.46c0.21,0.05,0.43-0.07,0.49-0.29
									c0.06-0.22-0.07-0.43-0.29-0.49l-9.04-2.31l0.23-13.42c0-0.22-0.17-0.4-0.39-0.41
									C131.44,253.58,131.27,253.73,131.24,253.94z"/>
							</g>
							<g>
								<path class="st2" d="M119.85,261.01c0,0.01,0,0.01,0,0.02l-1.02,15.57l13.67,2.4c0.22,0.04,0.43-0.11,0.46-0.33
									c0.03-0.23-0.11-0.43-0.33-0.46l-12.96-2.27l0.97-14.85c0.01-0.22-0.15-0.41-0.37-0.43
									C120.06,260.64,119.87,260.8,119.85,261.01z"/>
							</g>
							<g>
								<path class="st2" d="M110.87,262.65c0,0.01,0,0.01,0,0.02l-1.55,22.31l15.95,3.85c0.22,0.05,0.43-0.08,0.48-0.3
									c0.05-0.22-0.08-0.43-0.3-0.48l-15.3-3.69l1.5-21.64c0.02-0.22-0.15-0.41-0.37-0.43
									C111.08,262.28,110.89,262.43,110.87,262.65z"/>
							</g>
						</g>
					</g>
					<g>
						<polygon class="st11" points="150.67,310.42 29.97,310.42 26.94,282.86 153.7,282.86 						"/>
						<polygon class="st6" points="151.55,302.41 29.09,302.41 29.32,304.49 151.32,304.49 						"/>
						<polygon class="st6" points="152.36,295.02 28.28,295.02 28.72,299.06 151.92,299.06 						"/>
						<rect x="25.04" y="280.95" class="st6" width="130.33" height="6.49"/>
					</g>
				</g>
			</g>
			<g>
				<path class="st12" d="M262.71,316.68H160.2c-7.26,0-18.53-5.45-17.69-12.71l31.31-217.93c0.84-7.26,7.41-13.14,14.66-13.14
					l96.23-3.75c11.7,0,18.73,9.63,17.89,16.89l-25.23,217.5C276.53,310.79,269.96,316.68,262.71,316.68z"/>
				<g>
					<g>
						<g>
							<path class="st7" d="M255.15,312.86H152.65c-7.26,0-12.45-5.88-11.61-13.14l25.23-217.5c0.84-7.26,7.41-13.14,14.66-13.14
								h102.51c7.26,0,12.45,5.88,11.61,13.14l-25.23,217.5C268.97,306.98,262.41,312.86,255.15,312.86z"/>
							<path class="st3" d="M255.13,308.3h-101.4c-5.52,0-9.48-4.48-8.84-10l24.99-215.4c0.64-5.52,5.64-10,11.16-10h101.4
								c5.52,0,9.48,4.48,8.84,10l-24.99,215.4C265.65,303.83,260.65,308.3,255.13,308.3z"/>
							<path class="st7" d="M213.64,302.88h-21.13c-2.45,0-4.22-2-3.93-4.45l0,0c0.28-2.45,2.52-4.45,4.97-4.45h21.13
								c2.45,0,4.22,2,3.93,4.45l0,0C218.32,300.88,216.09,302.88,213.64,302.88z"/>
							
								<ellipse transform="matrix(0.7273 -0.6863 0.6863 0.7273 -5.4847 147.9686)" class="st7" cx="183.46" cy="80.89" rx="3.54" ry="3.15"/>
							
								<ellipse transform="matrix(0.7273 -0.6863 0.6863 0.7273 -3.0435 154.1125)" class="st7" cx="192.41" cy="80.89" rx="2.13" ry="1.9"/>
						</g>
						<polygon class="st1" points="261.98,288.9 150.53,288.9 173.63,89.78 285.08,89.78 						"/>
						<path class="st13" d="M269.65,120.51h-87.62c-2.69,0-4.62-2.18-4.31-4.87l1.77-15.26c0.31-2.69,2.75-4.87,5.44-4.87h87.62
							c2.69,0,4.62,2.18,4.31,4.87l-1.77,15.26C274.78,118.33,272.34,120.51,269.65,120.51z"/>
						<g>
							<text transform="matrix(0.9933 0 -0.1152 0.9933 194.0459 110.2677)" class="st3 st14 st15">Monday 11.00 AM</text>
						</g>
					</g>
					<g>
						<g>
							<g>
								<polygon class="st13" points="193.92,147.91 173.98,147.91 176.29,127.97 196.24,127.97 								"/>
								<g>
									<polygon class="st3" points="219.73,147.91 199.79,147.91 202.1,127.97 222.04,127.97 									"/>
								</g>
								<polygon class="st13" points="245.54,147.91 225.59,147.91 227.91,127.97 247.85,127.97 								"/>
								<polygon class="st13" points="271.35,147.91 251.4,147.91 253.72,127.97 273.66,127.97 								"/>
							</g>
							<g>
								<polygon class="st13" points="190.96,173.42 171.02,173.42 173.33,153.47 193.28,153.47 								"/>
								<polygon class="st13" points="216.77,173.42 196.83,173.42 199.14,153.47 219.09,153.47 								"/>
								<polygon class="st13" points="242.58,173.42 222.64,173.42 224.95,153.47 244.89,153.47 								"/>
								<polygon class="st13" points="268.39,173.42 248.44,173.42 250.76,153.47 270.7,153.47 								"/>
							</g>
							<g>
								<polygon class="st13" points="188.01,198.92 168.06,198.92 170.38,178.98 190.32,178.98 								"/>
								<polygon class="st13" points="213.81,198.92 193.87,198.92 196.18,178.98 216.13,178.98 								"/>
								<g>
									<polygon class="st13" points="239.62,198.92 219.68,198.92 221.99,178.98 241.93,178.98 									"/>
								</g>
								<polygon class="st13" points="265.43,198.92 245.48,198.92 247.8,178.98 267.74,178.98 								"/>
							</g>
							<g>
								<polygon class="st13" points="185.05,224.43 165.1,224.43 167.42,204.48 187.36,204.48 								"/>
								<polygon class="st13" points="210.85,224.43 190.91,224.43 193.22,204.48 213.17,204.48 								"/>
								<polygon class="st13" points="236.66,224.43 216.72,224.43 219.03,204.48 238.98,204.48 								"/>
								<polygon class="st13" points="262.47,224.43 242.53,224.43 244.84,204.48 264.78,204.48 								"/>
							</g>
						</g>
					</g>
					<g>
						<g>
							<g>
								<path class="st13" d="M180.14,265.67c0.18-1.56,1.6-2.84,3.17-2.84h18.02c1.69,0,3.26-0.97,4.09-2.54
									c0.83-1.56,0.69-3.28-0.37-4.48l-7-7.91c-0.69-0.78-1.67-1.2-2.76-1.2h-21.92c-1.2,0-2.19-0.76-2.46-1.9l-0.93-3.99
									c-0.2-0.88,0.04-1.82,0.66-2.58c0.63-0.76,1.52-1.19,2.45-1.19h30.24c0.75,0,1.43,0.29,1.9,0.82l11.32,12.62
									c0.1-0.56,0.21-1.11,0.32-1.66l-10.64-11.87c-0.68-0.76-1.66-1.18-2.75-1.18h-30.24c-1.35,0-2.64,0.63-3.55,1.73
									c-0.91,1.1-1.26,2.46-0.96,3.73l0.93,3.99c0.38,1.65,1.81,2.75,3.56,2.75h21.92c0.76,0,1.44,0.29,1.91,0.83l7,7.91
									c0.87,0.99,0.7,2.24,0.26,3.09c-0.45,0.85-1.43,1.75-2.82,1.75h-18.02c-2.27,0-4.32,1.84-4.58,4.11l-0.48,4.18
									c-0.26,2.27,1.37,4.11,3.63,4.11h19.91c1.56,0,2.69,1.27,2.5,2.88c-0.18,1.56-1.6,2.84-3.17,2.84h-39.83l-0.15,1.27h39.83
									c2.27,0,4.32-1.84,4.59-4.16c0.26-2.27-1.37-4.11-3.63-4.11h-19.91c-1.56,0-2.69-1.27-2.51-2.84L180.14,265.67z"/>
							</g>
							<g>
								<g>
									<g>
										<path class="st3" d="M223.95,240.26c-0.38,3.24-7.24,11.85-7.24,11.85s-4.87-8.61-4.5-11.85
											c0.38-3.24,3.31-5.87,6.55-5.87S224.32,237.01,223.95,240.26z"/>
									</g>
									<g>
										
											<ellipse transform="matrix(0.7273 -0.6863 0.6863 0.7273 -105.2288 215.1382)" class="st1" cx="218.11" cy="239.98" rx="3.34" ry="2.97"/>
									</g>
								</g>
							</g>
						</g>
						
							<ellipse transform="matrix(0.7273 -0.6863 0.6863 0.7273 -147.6858 188.9497)" class="st3" cx="163.92" cy="280.32" rx="5.22" ry="4.65"/>
						
							<ellipse transform="matrix(0.7273 -0.6863 0.6863 0.7273 -147.6858 188.9497)" class="st1" cx="163.92" cy="280.32" rx="2.69" ry="2.4"/>
					</g>
				</g>
			</g>
			<g>
				<path class="st11" d="M117.63,189.05c0,0,10.48-15.25,12.14-18.88c1.66-3.63,1.84-6.72-0.76-8.6c-2.6-1.89-7.4-3.36-11.64,2.61
					c-4.24,5.98-12.08,24.33-12.4,30.08c-0.32,5.74,25.65,23.13,27.96,24.25c2.54-0.67,3.62-4.46,3.62-4.46
					S119.77,192.76,117.63,189.05z"/>
				<path class="st16" d="M126.22,315.23c0,0,0.53,3.01-1.2,7.56s-1.82,5.98,0,6.98c1.82,1,3.11,1.29,8.18,0
					c5.07-1.29,10.71-4.11,10.71-4.11s-5.5-3.49-6.84-4.97c-1.34-1.48-4.16-6.79-4.11-7.56
					C133.01,312.36,126.22,315.23,126.22,315.23z"/>
				<path class="st17" d="M140.01,323.03c-2.04,1.36-3.99,2.85-6.6,2.47c-2.1-0.52-2.88-2.62-4.19-4.19
					c-0.9-0.72-2.31-0.95-3.52-0.59c-0.17,0.64-0.39,1.33-0.67,2.06c-1.72,4.54-1.82,5.98,0,6.98c1.82,1,3.11,1.29,8.18,0
					c5.07-1.29,10.71-4.11,10.71-4.11S141.9,324.37,140.01,323.03z"/>
				<path class="st18" d="M187.72,158.29l6.35,2.73c2.1-2.61,3.69-4.58,4.72-4.79c2.69,0.36,3.84-0.78,4.56-1.7
					c0.72-0.92-0.18-1.44-0.06-1.8c0.74-1.09-0.52-1.52-0.32-1.78c0.78-0.91,0.64-1.4,0.16-1.65c-0.47-0.25-1.26-0.48-1.12-0.94
					c0.15-0.46,2.08-1.68,3.76-2.47c1.68-0.8,3.53-2.07,2.5-2.74s-10.56,3.91-12.35,5.87c-1.79,1.96-1.33,4.04-3.56,6.19
					C191.55,156,189.75,157.15,187.72,158.29z"/>
				<path class="st19" d="M132.85,314.3c0,0,0.45,6.19-1.53,11.22c-1.98,5.04-1.4,7.27,2.17,8.29c3.57,1.02,5.55-1.4,10.2-1.28
					c4.66,0.13,10.84-0.38,12.44-4.66s-5.85-2.36-10.35-3.7c-4.51-1.34-2.5-9.25-2.5-9.25L132.85,314.3z"/>
				<path class="st20" d="M145.9,324.1c-0.4,1.35,3.27,2.78,2.18,3.51c-3.93,2.88-8.65-2.1-13.11-3.67
					c-0.91-0.45-1.99-0.47-3.05-0.25c-0.17,0.62-0.37,1.24-0.61,1.85c-1.98,5.04-1.4,7.27,2.17,8.29c3.57,1.02,5.55-1.4,10.2-1.28
					c4.66,0.13,13.46-0.75,15.06-5.03C160.33,323.29,150.42,325.35,145.9,324.1z"/>
				<g>
					<g>
						<g>
							<path class="st17" d="M158.21,325.47c-0.03,0.1-0.05,0.2-0.09,0.31c-1.59,4.27-10.4,5.15-15.06,5.03
								c-4.66-0.13-6.63,2.3-10.2,1.28c-1.23-0.35-2.09-0.85-2.63-1.55c0.15,1.7,1.21,2.69,3.27,3.28c3.57,1.02,5.55-1.4,10.2-1.28
								c4.66,0.13,13.46-0.75,15.06-5.03C159.12,326.54,158.86,325.9,158.21,325.47z"/>
						</g>
					</g>
				</g>
				<path class="st12" d="M140.38,234.97c-2.44-1.15-4.08-2.87-5.14-4.77c-2.11-3.76-1.94-8.25-1.17-10.54
					c1.15-3.44,5.74-12.12,5.74-12.12l-11.29-2.09c0,0-5.07,8.75-7.65,15.64c-2.58,6.89-0.48,14.16,0.77,19.61
					c1.24,5.45,4.4,21.04,3.06,26.88c-1.34,5.84-3.83,14.73-3.16,21.52c0.67,6.79,4.02,22.96,3.92,26.59
					c1.13,0.5,2.24,0.68,3.26,0.65c3.05-0.07,5.35-1.9,5.35-1.9s0.77-27.84,3.64-40.08C140.57,262.14,143.44,239.37,140.38,234.97z"
					/>
				<path class="st20" d="M140.38,234.97c-2.44-1.15-4.08-2.87-5.14-4.77c-4.78-2.26-1.45-11.02-1.83-16.43
					c-1.89,5.22-9.13,14.64,0.76,26.37c3.52,3.27,0.08,28.91-2.93,40.47c-2.7,9.8-1.52,25.55-1.04,35.57
					c2.28-0.47,3.88-1.72,3.88-1.72s0.77-27.84,3.64-40.08C140.57,262.14,143.44,239.37,140.38,234.97z"/>
				<path class="st12" d="M158.43,207.42c0,0,3.32,12.63,2.3,26.15c-1.02,13.52-10.08,36.22-11.1,41.2
					c-1.02,4.97-2.42,19.28-3.7,25.71s-1.91,12.43-1.21,14.08c-3,3.19-10.97,2.81-12.75,0c0.64-13.14,0.32-24.42,2.81-33.29
					c2.49-8.86,0.96-11.16,1.98-16.71c1.02-5.55,2.04-22.7,2.55-24.74c0.51-2.04-4.59-3.06-6.44-6.38s-5.68-11.29,4.91-27.55
					C149.05,205.51,158.43,207.42,158.43,207.42z"/>
				<path class="st21" d="M158.43,207.42c0,0-9.37-1.91-20.66-1.53c-0.21,0.33-0.41,0.64-0.61,0.96c9.31,0.12,16.44,1.57,16.44,1.57
					s3.32,12.63,2.3,26.15c-1.02,13.52-8.25,35.85-9.27,40.82c-1.02,4.97-1.42,18.63-2.7,25.06c-1.1,5.55-1.3,12.45-0.89,15.31
					c0.65-0.32,1.23-0.72,1.68-1.2c-0.7-1.66-0.06-7.65,1.21-14.08c1.28-6.43,2.68-20.74,3.7-25.71c1.02-4.97,10.08-27.68,11.1-41.2
					C161.74,220.05,158.43,207.42,158.43,207.42z"/>
				<path class="st19" d="M152.62,131.15c0,0,0.96,11.35-0.32,14.86c-1.28,3.51-2.55,6.06-3.25,6.76c-0.7,0.7-4.08-0.57-4.75,0
					c-0.67,0.57-0.61,7.14-0.61,7.14l-9.37-0.38c0,0,1.08-11.86,1.91-15.11C137.06,141.16,151.67,130.89,152.62,131.15z"/>
				<path class="st22" d="M130.43,159.3c0,0,7.27-3.64,13.2-0.77c5.93,2.87,15.21,14.92,16.64,17.22c1.43,2.3,2.39,7.46,0,12.15
					c-2.39,4.69-1.53,18.46-0.29,20.85c-10.04,2.97-25.64,1.05-32.81-2.1c4.02-5.84,6.12-8.04,3.25-14.44
					C127.56,185.8,124.12,167.63,130.43,159.3z"/>
				<path class="st11" d="M155.76,188.79c2.39-4.69,1.43-9.85,0-12.15c-1.43-2.3-10.71-14.35-16.64-17.22
					c-2.05-0.99-4.25-1.2-6.27-1.05c-1.47,0.47-2.42,0.94-2.42,0.94c-6.31,8.32-2.87,26.5,0,32.91c2.87,6.41,0.77,8.61-3.25,14.44
					c6.04,2.66,18.03,4.43,27.67,3.16c0.21-0.06,0.42-0.11,0.62-0.17C154.23,207.25,153.37,193.48,155.76,188.79z"/>
				<path class="st6" d="M167.07,173.17c0,0-15.14-10.64-18.75-12.34c-3.61-1.7-6.7-1.91-8.61,0.67c-1.91,2.58-3.44,7.37,2.49,11.67
					c5.93,4.3,24.2,12.34,29.94,12.72c5.74,0.38,23.4-25.4,24.55-27.7c-0.64-2.55-4.42-3.67-4.42-3.67S170.8,171.07,167.07,173.17z"
					/>
				<g>
					<path class="st23" d="M142.2,173.17c-0.2-0.15-0.37-0.28-0.56-0.43C141.82,172.89,142,173.03,142.2,173.17z"/>
					<path class="st24" d="M139.34,164c1.91-2.58,5-2.37,8.61-0.67c3.61,1.7,18.17,11.21,18.17,11.21
						c3.73-2.1,26.14-20.02,26.14-20.02s-21.47,16.54-25.2,18.64c0,0-15.14-10.64-18.75-12.34c-3.61-1.7-6.7-1.91-8.61,0.67
						c-0.9,1.21-1.71,2.9-1.71,4.8C138.27,165.52,138.77,164.77,139.34,164z"/>
				</g>
				<path class="st12" d="M151.92,125.79c-4.34-4.34-12.37-5.99-12.37-5.99c-6.82-2.32-12.12,4.08-13.65,9.82
					c-1.53,5.74-0.78,12.42-3.12,19.96c-1.19,3.68-18.17,29.98,4.09,49.03c5.66,2.8,9.99,4.03,16.11-0.69
					c-6.45-15.32-4.41-30.03-3.11-34.44c1.26-4.26,3.84-4.42,6.21-3.54c0.11,0.04,0.21,0.08,0.32,0.13
					c-0.22-0.43-0.51-0.93-0.84-1.47c-1.19-3.56-0.07-10.94,2.37-13.54c2.87-3.06,4.21-8.04,4.69-11.67
					c0.67,4.3-0.86,6.98-1.91,8.51C154.82,138.74,156.26,130.13,151.92,125.79z"/>
				<path class="st20" d="M124.62,182.82c-2.51-17.6,4.53-35.7,11.06-52.29c1.96-5.09,7.56-7.43,13.27-7.04
					c-4.27-2.64-9.4-3.7-9.4-3.7c-6.82-2.32-12.12,4.08-13.65,9.82c-1.53,5.74-0.78,12.42-3.12,19.96
					c-1.19,3.68-18.17,29.98,4.09,49.03c4.58,2.26,8.28,3.5,12.77,1.39c-1.91-0.34-4.15-1.59-4.63-1.98
					C129.99,194.51,125.62,188.85,124.62,182.82z"/>
			</g>
			<g>
				<g>
					<g>
						<path class="st9" d="M259.53,198.78c0,0-9.64-28.55-0.96-36.75c8.68-8.2-2.09-19.84,0.46-27.42s11.9-12.08,15.97,1.82
							c4.08,13.9,5.23,14.34,15.47,14.98c10.24,0.64,9.46,21.26,7.64,30.75c-1.81,9.49,8.25-5.5,11.29,4.68s-11.7,31.19-27.2,42.13
							c-15.5,10.95-34.46-20.19-33.16-27.97C250.35,193.22,256.04,203.65,259.53,198.78z"/>
					</g>
					<g>
						<path class="st8" d="M260.89,158.96c-0.54,1.07-1.29,2.1-2.33,3.08c-8.68,8.2,0.96,36.75,0.96,36.75
							c-3.49,4.87-9.18-5.55-10.49,2.23s17.66,38.92,33.16,27.97c0.83-0.59,1.66-1.21,2.49-1.85
							C282.9,202.78,274.67,179.43,260.89,158.96z"/>
					</g>
					<g>
						<g>
							<path class="st10" d="M276.93,231.69c-0.16,0.17-0.39,0.26-0.64,0.21c-0.37-0.07-0.62-0.43-0.55-0.8
								c0.07-0.39,7.22-39.44-10.84-96.06c-0.12-0.36,0.08-0.75,0.45-0.86c0.36-0.12,0.75,0.08,0.86,0.45
								c18.18,56.97,10.96,96.34,10.88,96.74C277.07,231.49,277.01,231.6,276.93,231.69z"/>
						</g>
						<g>
							<path class="st10" d="M270.33,151.83l-9.14-7.36c-0.3-0.24-0.34-0.67-0.1-0.97c0.24-0.29,0.67-0.34,0.97-0.1l7.9,6.37
								l4.17-6.98c0.2-0.33,0.62-0.43,0.94-0.24c0.33,0.19,0.43,0.62,0.24,0.94L270.33,151.83z"/>
						</g>
						<g>
							<path class="st10" d="M292.67,157.43c-0.01,0.02-0.03,0.03-0.05,0.05l-17.77,16.26l-14.12-9.59
								c-0.31-0.21-0.4-0.64-0.18-0.95c0.21-0.32,0.64-0.4,0.95-0.18l13.22,8.98l16.97-15.53c0.28-0.26,0.71-0.24,0.97,0.04
								C292.91,156.77,292.91,157.17,292.67,157.43z"/>
						</g>
						<g>
							<path class="st10" d="M296.52,180.1c-0.01,0.01-0.01,0.02-0.02,0.02l-18.83,18.99l-18.6-14.82c-0.3-0.24-0.35-0.67-0.11-0.97
								c0.25-0.3,0.67-0.35,0.97-0.11l17.63,14.06l17.97-18.12c0.27-0.27,0.7-0.27,0.97,0C296.76,179.41,296.77,179.83,296.52,180.1
								z"/>
						</g>
						<g>
							<path class="st10" d="M304.62,193.48c-0.01,0.01-0.01,0.01-0.02,0.02l-26.89,27.32l-23.05-16.12
								c-0.31-0.22-0.39-0.65-0.17-0.96c0.22-0.31,0.65-0.39,0.96-0.17l22.1,15.46l26.08-26.49c0.27-0.27,0.7-0.27,0.97-0.01
								C304.86,192.79,304.87,193.21,304.62,193.48z"/>
						</g>
					</g>
				</g>
				<g>
					<g>
						<path class="st10" d="M255.56,262.18c0,0-21.07-10.55-20.77-19.88s-12.08-9.86-14.84-15.48c-2.76-5.61-0.04-13.26,9.87-7.78
							c9.92,5.48,10.8,5.08,16.84-0.2s16.96,6.6,21.18,12.87c4.22,6.27,1.55-7.6,8.85-3.61c7.3,3.98,10.67,23.76,8.09,38.37
							c-2.58,14.61-30.25,7.76-33.82,2.72C247.4,264.15,256.3,266.81,255.56,262.18z"/>
					</g>
					<g>
						<path class="st9" d="M234.39,239.31c0.29,0.89,0.44,1.87,0.4,2.99c-0.31,9.33,20.77,19.88,20.77,19.88
							c0.74,4.63-8.16,1.97-4.59,7.01c3.56,5.04,31.23,11.89,33.82-2.72c0.14-0.78,0.26-1.59,0.36-2.4
							C270.74,251.54,253.32,243.1,234.39,239.31z"/>
					</g>
					<g>
						<g>
							<path class="st3" d="M283.34,270.88c0.01,0.18-0.08,0.36-0.24,0.47c-0.25,0.17-0.58,0.1-0.75-0.15
								c-0.17-0.26-17.7-25.88-58.9-47.38c-0.26-0.14-0.37-0.46-0.23-0.72c0.14-0.26,0.46-0.37,0.72-0.23
								c41.46,21.63,59.12,47.48,59.3,47.73C283.31,270.69,283.34,270.78,283.34,270.88z"/>
						</g>
						<g>
							<path class="st3" d="M235.71,230.16l-9.13,0.94c-0.29,0.03-0.56-0.18-0.59-0.48c-0.03-0.29,0.18-0.56,0.48-0.59l7.9-0.81
								l-1.53-6.17c-0.07-0.29,0.1-0.58,0.39-0.65c0.29-0.07,0.58,0.1,0.65,0.39L235.71,230.16z"/>
						</g>
						<g>
							<path class="st3" d="M251.2,220.97c0,0.02,0,0.03,0,0.05l-0.92,18.82l-13.12,2.45c-0.29,0.05-0.57-0.14-0.63-0.43
								c-0.06-0.29,0.14-0.57,0.43-0.63l12.29-2.29l0.88-17.97c0.01-0.3,0.27-0.52,0.56-0.51
								C250.97,220.47,251.19,220.7,251.2,220.97z"/>
						</g>
						<g>
							<path class="st3" d="M265.82,231.44c0,0.01,0,0.02,0,0.02l0,20.92l-18.49,2c-0.3,0.03-0.56-0.18-0.59-0.48
								c-0.03-0.31,0.18-0.56,0.48-0.59l17.53-1.9l0-19.95c0-0.3,0.24-0.54,0.54-0.54C265.57,230.93,265.81,231.15,265.82,231.44z"
								/>
						</g>
						<g>
							<path class="st3" d="M277.69,234.41c0,0.01,0,0.01,0,0.02l0.11,29.98l-21.68,3.74c-0.29,0.05-0.57-0.15-0.62-0.44
								c-0.05-0.29,0.15-0.57,0.44-0.62l20.78-3.58l-0.1-29.07c0-0.3,0.24-0.54,0.54-0.54C277.44,233.9,277.68,234.13,277.69,234.41
								z"/>
						</g>
					</g>
				</g>
				<g>
					<g>
						<g>
							<path class="st3" d="M310.55,248.56c0,0,18.03-24.14,12.33-34.63c-5.71-10.49,8.15-18.21,8.08-26.2
								c-0.07-8-7.56-15.18-15.75-3.23c-8.19,11.95-9.42,12-19.36,9.43c-9.94-2.57-15.59,17.28-16.81,26.86s-6.13-7.79-12.19,0.95
								c-6.05,8.74,1.43,33.28,12.77,48.49c11.34,15.22,39.03-8.49,40.21-16.29C321,246.13,312.36,254.27,310.55,248.56z"/>
						</g>
					</g>
					<g>
						<path class="st10" d="M321.61,210.28c0.18,1.18,0.58,2.39,1.26,3.65c5.71,10.49-12.33,34.63-12.33,34.63
							c1.81,5.71,10.45-2.43,9.27,5.38s-28.87,31.51-40.21,16.29c-0.61-0.82-1.2-1.67-1.79-2.53
							C287.09,245.11,302.16,225.47,321.61,210.28z"/>
					</g>
					<g>
						<g>
							<path class="st2" d="M283.79,274.44c0.09,0.21,0.29,0.37,0.54,0.4c0.38,0.05,0.72-0.22,0.77-0.59
								c0.05-0.39,5.38-39.74,40.13-87.95c0.22-0.31,0.15-0.74-0.16-0.96c-0.31-0.22-0.74-0.15-0.96,0.16
								c-34.97,48.51-40.33,88.18-40.38,88.58C283.72,274.2,283.74,274.33,283.79,274.44z"/>
						</g>
						<g>
							<path class="st2" d="M314.86,200.58l10.97-4.16c0.35-0.13,0.53-0.53,0.4-0.89c-0.14-0.35-0.53-0.53-0.89-0.4l-9.49,3.6
								l-1.79-7.93c-0.08-0.37-0.45-0.6-0.82-0.52c-0.37,0.08-0.6,0.45-0.52,0.82L314.86,200.58z"/>
						</g>
						<g>
							<path class="st2" d="M291.88,198.96c0.01,0.02,0.02,0.04,0.03,0.06L303.76,220l16.4-4.74c0.36-0.11,0.57-0.49,0.47-0.85
								c-0.1-0.37-0.49-0.57-0.85-0.47l-15.36,4.43l-11.31-20.03c-0.19-0.33-0.61-0.45-0.94-0.26
								C291.86,198.26,291.74,198.64,291.88,198.96z"/>
						</g>
						<g>
							<path class="st2" d="M281.19,219.32c0,0.01,0.01,0.02,0.01,0.03l12.01,23.9l22.28-8.32c0.36-0.13,0.54-0.53,0.4-0.88
								c-0.15-0.36-0.53-0.54-0.88-0.4l-21.13,7.89l-11.45-22.8c-0.17-0.34-0.58-0.48-0.92-0.31
								C281.17,218.59,281.04,218.98,281.19,219.32z"/>
						</g>
						<g>
							<path class="st2" d="M269.33,229.53c0,0.01,0.01,0.02,0.01,0.03l17.08,34.32l26.92-8.17c0.36-0.11,0.57-0.49,0.46-0.86
								c-0.11-0.36-0.49-0.57-0.86-0.46l-25.81,7.83l-16.56-33.28c-0.17-0.34-0.58-0.48-0.92-0.31
								C269.32,228.8,269.18,229.19,269.33,229.53z"/>
						</g>
					</g>
				</g>
				<g>
					<polygon class="st11" points="250.94,272.31 304.03,272.31 292.99,324.87 258.76,324.87 					"/>
					<polygon class="st6" points="299.47,294.03 254.18,294.03 254.99,299.52 298.32,299.52 					"/>
					<polygon class="st6" points="297.82,301.9 255.35,301.9 255.76,304.64 297.24,304.64 					"/>
					<rect x="249.35" y="271.44" class="st6" width="56.18" height="7.47"/>
				</g>
			</g>
		</g>
	</g>
</g>
</svg>
